<svg width="250" height="320" viewBox="0 0 250 320" fill="none" xmlns="http://www.w3.org/2000/svg">
<path fill-rule="evenodd" clip-rule="evenodd" d="M17.4135 150.159L84.675 150.666C84.7385 156.402 84.6468 162.131 84.6891 167.853C84.7314 173.3 84.1042 172.307 77.9172 178.452C74.2176 182.123 28.1599 227.497 26.518 230.252C27.4834 231.831 27.6948 232.085 28.935 233.325C33.3111 228.547 38.2227 224.277 42.8172 219.577L77.6494 184.921C79.5097 183.06 83.2304 179.734 84.5693 177.909C84.7596 179.283 84.8583 190.6 84.5764 191.516C84.069 193.165 37.3489 237.546 35.6647 240.541C36.3059 241.499 37.9972 243.331 38.9626 243.902C39.7236 243.479 39.1951 243.853 39.8505 243.226L66.7833 215.891C69.4469 213.523 71.258 211.346 73.6609 208.936C75.6622 206.928 85.8871 195.596 87.6065 195.279C89.4739 194.934 99.2548 195.152 101.573 195.293C92.504 204.56 83.4066 213.7 74.2035 222.945L53.4648 243.684C51.5129 245.636 47.919 248.609 46.411 250.463C47.4117 251.506 48.067 252.105 49.2579 252.88C52.3233 251.372 74.0978 228.794 78.4809 224.023L90.9326 211.311C94.8647 207.78 99.3887 202.707 103.109 198.662C104.364 197.302 105.766 195.315 108.091 195.223C113.447 195.019 119.268 195.272 124.694 195.244L124.898 295.9C133.34 295.019 163.289 276.55 171.879 270.631C181.611 263.929 192.145 256.692 200.651 248.701L204.386 245.354C210.749 240.005 221.185 228.801 224.328 221.677C227.577 214.313 228.373 205.356 228.302 196.576C228.225 186.978 228.112 177.43 228.021 167.79L164.445 167.776C163.761 163.076 164.311 153.569 164.311 148.362C164.311 138.095 163.585 140.843 170.11 134.134C171.83 132.366 173.471 131.048 175.163 129.258C177.072 127.243 178.2 126.059 180.159 124.325C186.304 118.885 191.793 112.839 198.121 107.547C199.192 106.652 199.566 106.116 200.616 105.088L213.582 93.242C217.817 89.0773 222.277 85.6596 226.463 81.2977C228.584 79.085 228.415 76.5129 228.098 73.3982L212.419 88.1753C202.899 96.6597 194.21 105.905 184.683 114.326C180.131 118.35 167.89 131.252 164.311 133.338L164.783 117.892L228.31 55.1753L228.204 48.7486L159.244 116.658L145.989 116.63L219.705 42.8998L215.851 41.3072L138.886 116.489C137.561 116.919 119.662 116.658 116.815 116.609L116.209 25.2406C99.8468 25.1701 81.4758 27.5731 65.6064 30.6877C50.2092 33.7108 36.2214 38.2137 22.8607 43.9709C16.737 46.6134 17.4558 45.1689 17.2796 52.2791C16.9414 66.0766 17.4347 79.8954 17.4347 93.7564C17.4347 112.557 17.4699 131.358 17.4347 150.159M120.402 170.362C122.537 174.534 128.71 178.339 135.99 177.317C146.264 175.872 147.624 168.861 149.562 168.255C149.703 170.228 149.259 173.632 147.99 174.794C140.831 181.348 115.011 183.272 112.087 163.498C109.804 148.031 121.847 137.848 135.947 139.666C141.5 140.385 142.755 141.928 144.981 142.696C147.201 143.464 147.596 140.864 148.124 144.831C148.406 146.967 149.224 150.349 148.505 151.462C147.398 151.11 146.489 149.031 145.672 147.988C142.557 144.021 139.224 141.576 133.312 141.231C134.425 144.669 135.475 145.91 135.651 150.462C135.785 153.985 135.243 157.304 133.812 160.229C131.395 165.168 126.899 169.213 120.402 170.348V170.362Z" fill="#DACBA2"/>
<path fill-rule="evenodd" clip-rule="evenodd" d="M11.4019 42.4616C9.88686 56.372 11.113 73.7986 11.113 88.0754V181.671C11.113 204.488 8.78053 220.583 24.4103 238.045C28.3001 242.393 31.7601 246.106 35.9106 249.926L42.1682 255.373C44.3808 257.17 46.3751 258.833 48.6441 260.609C62.2515 271.221 75.3021 279.832 90.7768 288.662C94.9697 291.051 118.562 303.495 122.91 303.228C125.658 303.059 136.828 298.168 139.569 296.829C151.576 290.959 158.341 286.773 169.355 279.832C181.208 272.363 186.296 267.987 196.627 260.299C201.2 256.895 205.104 253.026 209.29 249.552C210.509 248.545 211.037 247.678 212.108 246.712C215.195 243.929 218.119 240.652 220.825 237.693C237.019 220.033 234.228 204.946 234.277 181.671V88.0754C234.27 76.6314 235.229 52.2425 233.96 42.3348C232.276 41.8274 230.247 40.5449 228.436 39.6922C170.511 12.3366 81.4892 12.4001 22.9727 37.0215C19.4987 38.4802 14.4884 40.566 11.3878 42.4616M17.4058 150.158C17.441 131.357 17.4058 112.556 17.4058 93.7551C17.4058 79.8941 16.9125 66.0754 17.2508 52.2778C17.4269 45.1676 16.7081 46.6122 22.8318 43.9696C36.1995 38.2124 50.1874 33.7095 65.5776 30.6864C81.4469 27.5718 99.8178 25.1688 116.18 25.2393L116.786 116.608C119.626 116.657 137.532 116.918 138.857 116.488C139.808 116.178 162.894 92.987 166.537 89.4777C172.026 84.1785 177.396 78.5975 183.16 73.4815L194.111 62.8057C198.55 58.338 213.13 45.1394 215.822 41.313C216.703 41.5244 217.126 41.6724 217.964 42.0106L219.676 42.8985C219.719 42.828 219.832 43.0042 219.902 43.0676C218.584 45.3297 208.895 54.0183 205.963 56.9427L154.994 107.377C153.07 109.272 146.862 114.755 145.953 116.629C149.04 116.629 152.133 116.629 155.22 116.629C160.357 116.629 159.582 117.235 162.365 114.381C165.473 111.196 168.503 108.363 171.66 105.241C180.856 96.151 190.045 86.7365 199.502 77.773L213.539 64.1657C215.019 62.5097 216.682 61.2624 218.338 59.7403L223.108 55.2938C224.475 54.0465 226.357 51.5097 228.161 51.1573C228.147 55.9351 228.922 55.8998 226.47 58.6692C222.199 63.4751 216.858 67.2522 212.256 71.748L193.822 89.8301C192.257 91.3944 190.672 92.8109 189.051 94.2836C187.43 95.7564 186.099 97.3842 184.506 98.9486C181.427 101.972 178.164 104.649 175.204 107.736C171.963 111.118 169.327 113.641 166.072 116.678C165.043 117.644 164.395 117.693 164.247 119.617C163.915 124.113 164.254 128.841 164.268 133.351C167.854 131.265 180.088 118.362 184.64 114.339C194.167 105.918 202.849 96.6725 212.376 88.1882L228.055 73.4111C228.372 76.5257 228.541 79.0978 226.42 81.3105C222.234 85.6725 217.774 89.0901 213.539 93.2548L200.573 105.1C199.523 106.122 199.149 106.665 198.078 107.56C191.743 112.852 186.261 118.898 180.116 124.338C178.157 126.072 177.029 127.256 175.12 129.271C173.428 131.061 171.787 132.378 170.067 134.147C163.542 140.856 164.268 138.108 164.268 148.375C164.268 153.589 163.718 163.095 164.402 167.789L227.978 167.803C228.069 177.443 228.182 186.991 228.259 196.589C228.33 205.369 227.534 214.325 224.285 221.689C221.142 228.814 210.713 240.018 204.343 245.367L200.608 248.714C192.102 256.698 181.568 263.935 171.836 270.643C163.246 276.563 133.29 295.032 124.855 295.913L124.651 195.257C119.232 195.292 113.404 195.031 108.049 195.236C105.723 195.327 104.314 197.315 103.066 198.675C99.3457 202.712 94.8217 207.793 90.8896 211.324L78.4379 224.036C74.0548 228.807 52.2803 251.384 49.2149 252.893C48.024 252.117 47.3757 251.525 46.368 250.475C47.876 248.622 51.4699 245.648 53.4219 243.696L74.1605 222.958C83.3707 213.719 92.461 204.573 101.53 195.306C99.2118 195.158 89.4309 194.947 87.5635 195.292C85.8441 195.609 75.6192 206.933 73.6179 208.949C71.215 211.359 69.411 213.536 66.7403 215.904L39.8075 243.238C39.1521 243.873 39.6807 243.492 38.9196 243.915C37.9542 243.344 36.2559 241.505 35.6217 240.554C37.3059 237.559 84.0331 193.178 84.5334 191.529C84.8153 190.62 84.7166 179.296 84.5264 177.922C83.1875 179.747 79.4597 183.073 77.6064 184.933L42.7742 219.589C38.1797 224.297 33.2681 228.56 28.892 233.338C27.6518 232.105 27.4404 231.844 26.475 230.265C28.1169 227.51 74.1817 182.136 77.8742 178.464C84.0683 172.32 84.6884 173.313 84.6461 167.866C84.6039 162.144 84.7025 156.415 84.632 150.679L17.3705 150.172L17.4058 150.158Z" fill="#FFFAD5"/>
<path fill-rule="evenodd" clip-rule="evenodd" d="M0.469345 25.8292C-0.48197 42.8119 0.307262 60.0272 0.307262 77.0945V182.035C0.307262 198.158 -1.39807 215.641 4.54941 229.566C9.57377 241.327 20.1721 251.481 27.5853 258.634C34.6885 265.49 49.5995 276.483 56.8365 281.867C72.1421 293.247 89.1531 302.394 106.002 311.407C108.525 312.76 122.132 318.912 124.486 319.06C128.678 319.335 155.661 305.079 159.853 302.577C179.274 290.985 197.328 279.64 214.247 265.138C219.709 260.459 227.763 253.017 232.548 247.648C251.941 225.887 248.939 211.561 248.925 182.387V77.4468C248.925 60.3866 249.827 42.671 248.777 25.7235C194.798 -1.17408 118.334 -6.02931 56.5194 6.7465C42.7923 9.58635 26.0985 14.4486 13.2592 19.8394C9.5174 21.4108 3.35852 23.842 0.469345 25.8292ZM11.42 42.4666C14.5206 40.571 19.5309 38.4922 23.0049 37.0265C81.5143 12.4051 170.543 12.3416 228.468 39.6972C230.286 40.5569 232.308 41.8394 233.993 42.3398C235.261 52.2475 234.296 76.6364 234.31 88.0804V181.676C234.26 204.951 237.051 220.038 220.85 237.698C218.137 240.65 215.213 243.934 212.133 246.717C211.062 247.683 210.534 248.55 209.315 249.557C205.129 253.031 201.225 256.893 196.652 260.304C186.321 267.992 181.233 272.368 169.381 279.837C158.367 286.778 151.602 290.964 139.594 296.834C136.853 298.173 125.684 303.064 122.935 303.233C118.587 303.5 94.9948 291.056 90.802 288.667C75.3273 279.837 62.2766 271.226 48.6693 260.614C46.4002 258.845 44.406 257.182 42.1933 255.378L35.9358 249.931C31.7782 246.111 28.3252 242.398 24.4354 238.05C8.80567 220.588 11.1452 204.493 11.1382 181.676V88.0804C11.1382 73.7966 9.90497 56.3699 11.4271 42.4666H11.42Z" fill="#DACBA2"/>
<path fill-rule="evenodd" clip-rule="evenodd" d="M119.015 168.332C123.743 165.9 126.752 163.709 128.951 158.586C129.952 156.253 130.572 153.329 130.663 150.489C130.797 146.247 129.874 144.774 129.564 141.314C126.449 142.266 124.314 142.625 122.299 144.492C120.206 146.43 119.269 147.241 117.979 150.461C115.611 156.352 116.887 163.244 119.015 168.339" fill="#DACBA2"/>
<path fill-rule="evenodd" clip-rule="evenodd" d="M127.572 160.615L128.946 158.586C131.081 153.498 132.35 146.606 129.982 140.708C128.692 137.488 127.755 136.685 125.662 134.74C123.647 132.872 121.512 132.52 118.397 131.562L114.655 131.484C108.75 131.829 105.41 134.282 102.295 138.242C101.478 139.285 100.569 141.357 99.4622 141.709C98.7435 140.589 99.5609 137.213 99.8427 135.078C100.371 131.104 100.766 133.704 102.986 132.943C105.212 132.175 106.467 130.631 112.02 129.913C126.12 128.095 138.163 138.277 135.88 153.745C132.963 173.518 107.143 171.594 99.9766 165.041C98.7012 163.878 98.2643 160.475 98.4052 158.501C100.343 159.1 101.703 166.119 111.977 167.564C119.257 168.585 125.43 164.78 127.565 160.608" fill="#FEF9D4"/>
<path fill-rule="evenodd" clip-rule="evenodd" d="M120.394 170.361L119.02 168.332C116.885 163.244 115.617 156.352 117.984 150.454C119.274 147.234 120.211 146.43 122.304 144.485C124.319 142.618 126.454 142.266 129.569 141.307L133.311 141.23C139.216 141.575 142.556 144.027 145.671 147.988C146.488 149.03 147.397 151.102 148.504 151.462C149.223 150.341 148.405 146.966 148.123 144.831C147.595 140.856 147.2 143.456 144.98 142.695C142.754 141.927 141.499 140.384 135.946 139.665C121.846 137.847 109.803 148.03 112.086 163.497C115.003 183.271 140.823 181.347 147.989 174.793C149.265 173.631 149.702 170.227 149.561 168.254C147.623 168.853 146.263 175.872 135.989 177.316C128.709 178.338 122.536 174.533 120.401 170.361" fill="#353731"/>
</svg>
