<svg width="72" height="72" viewBox="0 0 72 72" fill="none" xmlns="http://www.w3.org/2000/svg">
<rect width="72" height="72" rx="10" fill="#061F36"/>
<path fill-rule="evenodd" clip-rule="evenodd" d="M21.1247 34.4499L30.661 34.5218C30.67 35.3351 30.657 36.1474 30.663 36.9586C30.669 37.7309 30.5801 37.5901 29.7029 38.4613C29.1783 38.9818 22.6483 45.4149 22.4155 45.8056C22.5524 46.0294 22.5823 46.0654 22.7582 46.2412C23.3786 45.5638 24.075 44.9584 24.7264 44.292L29.6649 39.3784C29.9287 39.1147 30.4562 38.6431 30.646 38.3843C30.673 38.5791 30.687 40.1837 30.647 40.3136C30.5751 40.5474 23.9511 46.8396 23.7123 47.2643C23.8032 47.4001 24.043 47.6599 24.1799 47.7408C24.2878 47.6809 24.2128 47.7338 24.3058 47.6449L28.1243 43.7694C28.502 43.4337 28.7587 43.125 29.0994 42.7833C29.3832 42.4986 30.8328 40.892 31.0766 40.8471C31.3414 40.7981 32.7281 40.8291 33.0568 40.8491C31.771 42.1629 30.4812 43.4587 29.1763 44.7695L26.236 47.7099C25.9593 47.9866 25.4497 48.4082 25.2359 48.671C25.3778 48.8188 25.4707 48.9038 25.6396 49.0137C26.0742 48.7999 29.1614 45.5988 29.7828 44.9224L31.5482 43.12C32.1057 42.6195 32.7471 41.9001 33.2746 41.3267C33.4525 41.1338 33.6513 40.8521 33.981 40.8391C34.7403 40.8101 35.5655 40.8461 36.3348 40.8421L36.3638 55.1131C37.5607 54.9882 41.8069 52.3696 43.0248 51.5304C44.4045 50.5803 45.8982 49.5542 47.1041 48.4212L47.6336 47.9466C48.5358 47.1883 50.0154 45.5998 50.461 44.5897C50.9216 43.5456 51.0345 42.2758 51.0245 41.0309C51.0135 39.6702 50.9975 38.3164 50.9845 36.9496L41.9707 36.9476C41.8738 36.2812 41.9517 34.9335 41.9517 34.1951C41.9517 32.7395 41.8488 33.1291 42.774 32.178C43.0178 31.9272 43.2506 31.7404 43.4903 31.4866C43.7611 31.2008 43.921 31.033 44.1987 30.7872C45.0699 30.0159 45.8482 29.1587 46.7454 28.4084C46.8972 28.2815 46.9502 28.2056 47.0991 28.0597L48.9374 26.3802C49.5379 25.7898 50.1703 25.3052 50.7637 24.6868C51.0645 24.3731 51.0405 24.0084 50.9955 23.5668L48.7725 25.6619C47.4228 26.8648 46.1909 28.1756 44.8401 29.3695C44.1947 29.94 42.4593 31.7693 41.9517 32.0651L42.0187 29.8751L51.0255 20.9831L51.0105 20.072L41.2334 29.7002L39.3541 29.6962L49.8056 19.2427L49.2591 19.0169L38.347 29.6762C38.1592 29.7372 35.6215 29.7002 35.2179 29.6932L35.1319 16.739C32.812 16.729 30.2074 17.0697 27.9574 17.5113C25.7744 17.9399 23.7912 18.5783 21.897 19.3946C21.0287 19.7692 21.1306 19.5644 21.1057 20.5725C21.0577 22.5287 21.1277 24.4879 21.1277 26.4532C21.1277 29.1187 21.1326 31.7843 21.1277 34.4499M35.7264 37.3143C36.0291 37.9058 36.9043 38.4453 37.9364 38.3004C39.3931 38.0956 39.5859 37.1015 39.8606 37.0156C39.8806 37.2953 39.8177 37.7779 39.6378 37.9427C38.6228 38.8719 34.9621 39.1446 34.5475 36.3412C34.2238 34.1482 35.9312 32.7045 37.9304 32.9623C38.7177 33.0642 38.8955 33.283 39.2112 33.3919C39.5259 33.5008 39.5819 33.1321 39.6568 33.6946C39.6968 33.9973 39.8127 34.4769 39.7108 34.6347C39.5539 34.5848 39.425 34.29 39.3091 34.1422C38.8675 33.5797 38.395 33.233 37.5567 33.1841C37.7146 33.6716 37.8634 33.8474 37.8884 34.4929C37.9074 34.9924 37.8305 35.463 37.6277 35.8776C37.285 36.578 36.6476 37.1514 35.7264 37.3123V37.3143Z" fill="#DACBA2"/>
<path fill-rule="evenodd" clip-rule="evenodd" d="M20.2724 19.1807C20.0576 21.1529 20.2315 23.6237 20.2315 25.6478V38.9178C20.2315 42.1528 19.9008 44.4348 22.1167 46.9105C22.6682 47.5269 23.1588 48.0535 23.7473 48.595L24.6345 49.3673C24.9482 49.622 25.2309 49.8578 25.5526 50.1096C27.4819 51.6142 29.3322 52.8351 31.5262 54.087C32.1207 54.4257 35.4656 56.1901 36.0821 56.1521C36.4717 56.1281 38.0553 55.4348 38.4439 55.2449C40.1464 54.4127 41.1055 53.8192 42.6671 52.8351C44.3476 51.7761 45.0689 51.1557 46.5336 50.0656C47.182 49.5831 47.7355 49.0346 48.3289 48.542C48.5018 48.3992 48.5767 48.2763 48.7286 48.1394C49.1662 47.7448 49.5808 47.2802 49.9645 46.8606C52.2604 44.3568 51.8647 42.2178 51.8717 38.9178V25.6478C51.8707 24.0253 52.0066 20.5674 51.8268 19.1627C51.588 19.0908 51.3002 18.9089 51.0435 18.7881C42.8309 14.9096 30.2094 14.9186 21.9129 18.4094C21.4204 18.6162 20.71 18.9119 20.2704 19.1807M21.1237 34.4498C21.1286 31.7842 21.1237 29.1187 21.1237 26.4531C21.1237 24.4879 21.0537 22.5287 21.1017 20.5724C21.1266 19.5643 21.0247 19.7692 21.8929 19.3945C23.7882 18.5782 25.7714 17.9398 27.9534 17.5112C30.2034 17.0696 32.808 16.7289 35.1279 16.7389L35.2139 29.6931C35.6165 29.7001 38.1552 29.7371 38.343 29.6762C38.4779 29.6322 41.7509 26.3442 42.2674 25.8466C43.0457 25.0953 43.807 24.304 44.6243 23.5787L46.1769 22.0651C46.8063 21.4317 48.8734 19.5604 49.2551 19.0178C49.38 19.0478 49.4399 19.0688 49.5588 19.1168L49.8016 19.2426C49.8076 19.2326 49.8236 19.2576 49.8336 19.2666C49.6467 19.5873 48.273 20.8192 47.8574 21.2338L40.6309 28.3843C40.3582 28.6531 39.478 29.4304 39.3491 29.6961C39.7867 29.6961 40.2253 29.6961 40.6629 29.6961C41.3912 29.6961 41.2813 29.7821 41.676 29.3774C42.1166 28.9258 42.5462 28.5242 42.9938 28.0816C44.2976 26.7928 45.6004 25.458 46.9412 24.1871L48.9314 22.2579C49.1412 22.0231 49.377 21.8463 49.6118 21.6305L50.2882 21C50.482 20.8232 50.7487 20.4635 51.0045 20.4136C51.0025 21.091 51.1124 21.086 50.7647 21.4786C50.1593 22.16 49.402 22.6955 48.7496 23.3329L46.1359 25.8966C45.9141 26.1184 45.6893 26.3192 45.4595 26.528C45.2298 26.7368 45.0409 26.9676 44.8151 27.1894C44.3785 27.618 43.9159 27.9977 43.4963 28.4353C43.0367 28.9149 42.6631 29.2725 42.2015 29.7031C42.0556 29.84 41.9637 29.847 41.9427 30.1198C41.8958 30.7572 41.9437 31.4276 41.9457 32.067C42.4543 31.7713 44.1887 29.9419 44.8341 29.3714C46.1849 28.1775 47.4158 26.8667 48.7665 25.6638L50.9895 23.5687C51.0345 24.0103 51.0585 24.375 50.7577 24.6887C50.1643 25.3071 49.5319 25.7917 48.9314 26.3822L47.0931 28.0616C46.9442 28.2065 46.8912 28.2834 46.7394 28.4103C45.8412 29.1606 45.0639 30.0179 44.1927 30.7892C43.9149 31.0349 43.7551 31.2028 43.4843 31.4885C43.2446 31.7423 43.0118 31.9291 42.768 32.1799C41.8428 33.131 41.9457 32.7414 41.9457 34.1971C41.9457 34.9364 41.8678 36.2842 41.9647 36.9496L50.9785 36.9516C50.9915 38.3183 51.0075 39.6721 51.0185 41.0328C51.0285 42.2777 50.9156 43.5476 50.455 44.5916C50.0094 45.6017 48.5308 47.1903 47.6276 47.9486L47.0981 48.4231C45.8922 49.5551 44.3985 50.5812 43.0188 51.5323C41.8009 52.3715 37.5537 54.9902 36.3578 55.1151L36.3288 40.844C35.5605 40.849 34.7343 40.812 33.975 40.841C33.6453 40.854 33.4455 41.1358 33.2686 41.3286C32.7411 41.9011 32.0997 42.6214 31.5422 43.122L29.7768 44.9243C29.1554 45.6007 26.0682 48.8018 25.6336 49.0156C25.4647 48.9057 25.3728 48.8218 25.2299 48.6729C25.4437 48.4101 25.9533 47.9885 26.23 47.7118L29.1703 44.7715C30.4762 43.4616 31.765 42.1648 33.0508 40.851C32.7221 40.83 31.3354 40.8001 31.0706 40.849C30.8268 40.894 29.3772 42.4995 29.0934 42.7853C28.7527 43.1269 28.497 43.4357 28.1183 43.7714L24.2998 47.6468C24.2068 47.7368 24.2818 47.6828 24.1739 47.7428C24.037 47.6618 23.7962 47.4011 23.7063 47.2662C23.9451 46.8416 30.5701 40.5493 30.641 40.3155C30.681 40.1866 30.667 38.5811 30.64 38.3863C30.4502 38.645 29.9217 39.1166 29.6589 39.3803L24.7204 44.2939C24.069 44.9613 23.3726 45.5657 22.7522 46.2431C22.5763 46.0683 22.5464 46.0313 22.4095 45.8075C22.6423 45.4169 29.1733 38.9837 29.6969 38.4632C30.5751 37.592 30.663 37.7328 30.657 36.9605C30.651 36.1493 30.665 35.337 30.655 34.5238L21.1187 34.4518L21.1237 34.4498Z" fill="#FFFAD5"/>
<path fill-rule="evenodd" clip-rule="evenodd" d="M18.7228 16.8225C18.5879 19.2303 18.6998 21.6711 18.6998 24.0909V38.9694C18.6998 41.2553 18.458 43.7341 19.3013 45.7083C20.0136 47.3758 21.5163 48.8155 22.5673 49.8295C23.5744 50.8016 25.6885 52.3602 26.7145 53.1235C28.8846 54.7371 31.2964 56.0339 33.6852 57.3117C34.0429 57.5036 35.9721 58.3758 36.3058 58.3967C36.9003 58.4357 40.7258 56.4146 41.3203 56.0599C44.0738 54.4164 46.6334 52.8078 49.0323 50.7517C49.8066 50.0883 50.9485 49.0333 51.6269 48.2719C54.3764 45.1867 53.9508 43.1556 53.9488 39.0193V24.1409C53.9488 21.7221 54.0767 19.2103 53.9278 16.8075C46.2748 12.994 35.4336 12.3056 26.6696 14.117C24.7233 14.5196 22.3565 15.209 20.5361 15.9733C20.0056 16.1961 19.1324 16.5408 18.7228 16.8225ZM20.2754 19.1814C20.715 18.9126 21.4253 18.6179 21.9179 18.4101C30.2134 14.9192 42.8359 14.9102 51.0484 18.7887C51.3062 18.9106 51.5929 19.0924 51.8317 19.1634C52.0116 20.5681 51.8747 24.026 51.8767 25.6485V38.9184C51.8697 42.2184 52.2653 44.3575 49.9684 46.8612C49.5838 47.2798 49.1691 47.7454 48.7325 48.1401C48.5807 48.2769 48.5057 48.3998 48.3329 48.5427C47.7394 49.0353 47.1859 49.5828 46.5375 50.0663C45.0729 51.1563 44.3515 51.7768 42.671 52.8358C41.1095 53.8199 40.1503 54.4134 38.4479 55.2456C38.0592 55.4354 36.4757 56.1288 36.086 56.1528C35.4696 56.1908 32.1246 54.4264 31.5302 54.0877C29.3362 52.8358 27.4858 51.6149 25.5566 50.1103C25.2349 49.8595 24.9521 49.6237 24.6384 49.3679L23.7512 48.5956C23.1618 48.0541 22.6722 47.5276 22.1207 46.9112C19.9047 44.4354 20.2364 42.1535 20.2354 38.9184V25.6485C20.2354 23.6233 20.0606 21.1526 20.2764 19.1814H20.2754Z" fill="#DACBA2"/>
<path fill-rule="evenodd" clip-rule="evenodd" d="M35.5306 37.0266C36.201 36.6819 36.6276 36.3711 36.9394 35.6448C37.0812 35.3141 37.1691 34.8995 37.1821 34.4968C37.2011 33.8954 37.0702 33.6866 37.0263 33.196C36.5847 33.3309 36.2819 33.3819 35.9962 33.6466C35.6995 33.9214 35.5666 34.0363 35.3838 34.4929C35.0481 35.3281 35.2289 36.3052 35.5306 37.0276" fill="#DACBA2"/>
<path fill-rule="evenodd" clip-rule="evenodd" d="M36.7443 35.9325L36.9391 35.6448C37.2418 34.9235 37.4217 33.9463 37.086 33.1101C36.9032 32.6535 36.7703 32.5396 36.4735 32.2639C36.1878 31.9991 35.8851 31.9492 35.4435 31.8133L34.913 31.8023C34.0757 31.8512 33.6022 32.1989 33.1606 32.7604C33.0447 32.9083 32.9158 33.202 32.7589 33.252C32.657 33.0931 32.7729 32.6146 32.8129 32.3118C32.8878 31.7483 32.9438 32.117 33.2585 32.0091C33.5742 31.9002 33.752 31.6814 34.5393 31.5795C36.5385 31.3217 38.2459 32.7654 37.9222 34.9584C37.5086 37.7619 33.8479 37.4891 32.8319 36.56C32.651 36.3951 32.5891 35.9126 32.6091 35.6328C32.8838 35.7177 33.0766 36.7128 34.5333 36.9176C35.5654 37.0625 36.4406 36.523 36.7433 35.9315" fill="#FEF9D4"/>
<path fill-rule="evenodd" clip-rule="evenodd" d="M35.7254 37.3141L35.5305 37.0264C35.2278 36.3051 35.048 35.3279 35.3837 34.4917C35.5665 34.0351 35.6994 33.9212 35.9961 33.6455C36.2819 33.3807 36.5846 33.3308 37.0262 33.1949L37.5567 33.1839C38.3939 33.2329 38.8675 33.5805 39.3091 34.142C39.425 34.2899 39.5539 34.5836 39.7107 34.6346C39.8126 34.4757 39.6968 33.9972 39.6568 33.6944C39.5819 33.1309 39.5259 33.4996 39.2112 33.3917C38.8955 33.2828 38.7176 33.064 37.9304 32.9621C35.9312 32.7043 34.2237 34.148 34.5474 36.341C34.9611 39.1445 38.6217 38.8717 39.6378 37.9426C39.8186 37.7777 39.8806 37.2952 39.8606 37.0154C39.5859 37.1003 39.393 38.0954 37.9364 38.3002C36.9043 38.4451 36.0291 37.9056 35.7264 37.3141" fill="#353731"/>
</svg>
