<svg preserveAspectRatio="xMidYMid meet" width="100%" height="100%" overflow="visible" style="display: block;" viewBox="0 0 40 40" fill="none" xmlns="http://www.w3.org/2000/svg">
<g id="fi_1358533" opacity="0.6" clip-path="url(#clip0_0_6)">
<path id="Vector" d="M39.9265 9.48519C39.7888 8.97323 39.4529 8.53678 38.9934 8.27218C38.5335 8.00627 37.9867 7.93435 37.4738 8.07202C36.9615 8.21002 36.525 8.54557 36.2604 9.00513L35.9271 9.58511C35.6105 9.40317 35.2059 9.51025 35.0207 9.8253L33.3277 12.7112L32.7477 12.3779C32.5941 12.2891 32.4111 12.265 32.24 12.3112C32.0684 12.3577 31.9226 12.4704 31.8344 12.6246C31.6538 12.9433 31.7638 13.3481 32.0811 13.531L32.6611 13.8643L26.9954 23.6826L25.5956 27.4222L24.929 28.6684C24.5388 29.3474 24.5804 30.1913 25.0358 30.8282L23.536 32.6678L23.1162 31.6149C22.9268 31.1456 22.4884 30.824 21.9842 30.7846C21.4797 30.7449 20.9964 30.9942 20.7364 31.4281L20.4965 31.8346L20.27 29.1684C20.2179 28.5376 19.7294 28.0305 19.1012 27.9544C18.4728 27.8785 17.8778 28.2551 17.677 28.8553L16.0373 33.7743C15.9227 34.1223 16.1102 34.4972 16.4572 34.6144C16.5223 34.6446 16.5922 34.6629 16.6638 34.6674C16.9502 34.6684 17.2054 34.4858 17.2972 34.2144L18.93 29.2953L19.1634 32.0012C19.2116 32.5786 19.6265 33.0586 20.1909 33.1895C20.7553 33.3203 21.3391 33.0717 21.6363 32.5747L21.883 32.1678L22.2963 33.2145C22.4718 33.6556 22.8685 33.9703 23.3381 34.0403C23.8078 34.1102 24.2791 33.925 24.5759 33.5543L26.129 31.5882C26.3009 31.6331 26.4779 31.6556 26.6556 31.6549C27.37 31.6604 28.0333 31.2842 28.3952 30.6681L29.0618 29.555L31.6014 26.4689L37.327 16.5305L37.907 16.8638C38.0616 16.9523 38.1742 17.0985 38.2201 17.2706C38.2663 17.4415 38.2422 17.6238 38.1537 17.7771L35.4874 22.3964C35.3869 22.5481 35.3527 22.7342 35.3931 22.9119C35.4334 23.0893 35.5444 23.2426 35.7006 23.336C35.8542 23.4252 36.0372 23.4493 36.2084 23.4031C36.3799 23.3565 36.5257 23.2439 36.6139 23.0896L39.2801 18.4703C39.546 18.0104 39.6179 17.4636 39.4799 16.9507C39.3419 16.4384 39.0064 16.002 38.5468 15.7374L37.9668 15.4041L39.6332 12.5179C39.8152 12.2012 39.7081 11.797 39.3934 11.6115L39.7266 11.0315C39.9997 10.5644 40.0719 10.0066 39.9265 9.48519ZM37.4135 9.67168C37.5017 9.51741 37.6482 9.40447 37.8204 9.35858C37.9916 9.31627 38.1725 9.34003 38.3268 9.4253C38.4814 9.5135 38.594 9.65996 38.6402 9.83181C38.6825 10.003 38.6588 10.184 38.5735 10.3382L38.2402 10.9182L37.0803 10.2517L37.4135 9.67168ZM28.3285 28.2821L27.9952 28.0888L27.0087 27.5153L27.9552 24.9825L30.0548 26.1956L28.3285 28.2821ZM26.3288 30.2082C26.0473 30.012 25.9607 29.6344 26.129 29.335L26.4623 28.7553L27.6219 29.4219L27.2886 29.995C27.1952 30.1571 27.0384 30.2723 26.8558 30.313C26.6732 30.3534 26.4821 30.3156 26.3288 30.2082ZM30.8147 25.1026L28.5085 23.7695L33.8409 14.5309L36.1472 15.864L30.8147 25.1026ZM36.8137 14.7109L34.5075 13.3778L35.8406 11.0715L38.1468 12.4046L36.8137 14.7109Z" fill="white"/>
<path id="Vector_2" d="M10.5181 29.8749L8.15877 32.2281L6.7456 30.8149C6.48555 30.5565 6.0657 30.5565 5.80565 30.8149C5.67937 30.9402 5.60842 31.1104 5.60842 31.2881C5.60842 31.4658 5.67937 31.6364 5.80565 31.7613L7.21882 33.1745C7.46878 33.4225 7.80661 33.5615 8.15877 33.5612C8.51287 33.5631 8.85363 33.4241 9.10522 33.1745L11.458 30.8149C11.6845 30.5503 11.6692 30.1561 11.4232 29.9101C11.1768 29.6637 10.7827 29.6484 10.5181 29.8749Z" fill="white"/>
<path id="Vector_3" d="M2.66621 31.6679C2.66621 34.7973 5.20289 37.3336 8.33191 37.3336C11.4609 37.3336 13.9976 34.7973 13.9976 31.6679C13.9976 31.2998 13.6992 31.0014 13.3311 31.0014C12.963 31.0014 12.6645 31.2998 12.6645 31.6679C12.6645 34.0608 10.7247 36.0005 8.33191 36.0005C5.93909 36.0005 3.99932 34.0608 3.99932 31.6679C3.99932 29.2751 5.93909 27.3353 8.33191 27.3353C9.2699 27.3327 10.1828 27.637 10.9314 28.2021C11.226 28.423 11.6438 28.3632 11.8645 28.0686C12.0855 27.7741 12.0259 27.3565 11.7314 27.1355C10.0146 25.848 7.71743 25.641 5.79817 26.6004C3.87857 27.5602 2.66621 29.5221 2.66621 31.6679Z" fill="white"/>
<path id="Vector_4" d="M23.9959 5.33909C24.364 5.33909 24.6625 5.04096 24.6625 4.67253C24.6625 4.30443 24.364 4.00598 23.9959 4.00598H6.66553C6.29743 4.00598 5.99898 4.30443 5.99898 4.67253V7.33875C5.99898 7.70717 6.29743 8.0053 6.66553 8.0053H23.9959C24.364 8.0053 24.6625 7.70717 24.6625 7.33875C24.6625 6.97064 24.364 6.67219 23.9959 6.67219H7.33208V5.33909H23.9959Z" fill="white"/>
<path id="Vector_5" d="M8.66519 9.3384C8.29709 9.3384 7.99864 9.63686 7.99864 10.005C7.99864 10.3734 8.29709 10.6715 8.66519 10.6715H21.9963C22.3644 10.6715 22.6628 10.3734 22.6628 10.005C22.6628 9.63686 22.3644 9.3384 21.9963 9.3384H8.66519Z" fill="white"/>
<path id="Vector_6" d="M25.9956 14.0043H11.3314C10.9633 14.0043 10.6648 14.3027 10.6648 14.6708C10.6648 15.0393 10.9633 15.3374 11.3314 15.3374H25.9956C26.3637 15.3374 26.6621 15.0393 26.6621 14.6708C26.6621 14.3027 26.3637 14.0043 25.9956 14.0043Z" fill="white"/>
<path id="Vector_7" d="M19.33 18.6701C19.33 18.302 19.0316 18.0036 18.6635 18.0036H5.33242C4.96432 18.0036 4.66587 18.302 4.66587 18.6701C4.66587 19.0386 4.96432 19.3367 5.33242 19.3367H18.6635C19.0316 19.3367 19.33 19.0386 19.33 18.6701Z" fill="white"/>
<path id="Vector_8" d="M25.9956 18.0036H21.3297C20.9616 18.0036 20.6631 18.302 20.6631 18.6701C20.6631 19.0386 20.9616 19.3367 21.3297 19.3367H25.9956C26.3637 19.3367 26.6621 19.0386 26.6621 18.6701C26.6621 18.302 26.3637 18.0036 25.9956 18.0036Z" fill="white"/>
<path id="Vector_9" d="M11.998 22.6695C12.3661 22.6695 12.6645 22.3713 12.6645 22.0029C12.6645 21.6348 12.3661 21.3364 11.998 21.3364H5.33242C4.96432 21.3364 4.66587 21.6348 4.66587 22.0029C4.66587 22.3713 4.96432 22.6695 5.33242 22.6695H11.998Z" fill="white"/>
<path id="Vector_10" d="M14.6642 22.6695H19.33C19.6981 22.6695 19.9966 22.3713 19.9966 22.0029C19.9966 21.6348 19.6981 21.3364 19.33 21.3364H14.6642C14.2961 21.3364 13.9976 21.6348 13.9976 22.0029C13.9976 22.3713 14.2961 22.6695 14.6642 22.6695Z" fill="white"/>
<path id="Vector_11" d="M29.9949 30.6681C29.6268 30.6681 29.3283 30.9666 29.3283 31.3347V38.0002C29.3283 38.3686 29.0299 38.6667 28.6618 38.6667H1.99966C1.63156 38.6667 1.33311 38.3686 1.33311 38.0002V2.00632C1.33311 1.63822 1.63156 1.33977 1.99966 1.33977H28.6618C29.0299 1.33977 29.3283 1.63822 29.3283 2.00632V14.5244C29.3283 14.8925 29.6268 15.1909 29.9949 15.1909C30.363 15.1909 30.6614 14.8925 30.6614 14.5244V2.00632C30.6614 0.902016 29.7661 0.00666046 28.6618 0.00666046H1.99966C0.895355 0.00666046 -6.93737e-07 0.902016 -6.93737e-07 2.00632V38.0002C-6.93737e-07 39.1048 0.895355 39.9998 1.99966 39.9998H28.6618C29.7661 39.9998 30.6614 39.1048 30.6614 38.0002V31.3347C30.6614 30.9666 30.363 30.6681 29.9949 30.6681Z" fill="white"/>
</g>
<defs>
<clipPath id="clip0_0_6">
<rect width="40" height="40" fill="white"/>
</clipPath>
</defs>
</svg>
