<svg preserveAspectRatio="xMidYMid meet" width="100%" height="100%" overflow="visible" style="display: block;" viewBox="0 0 17.7811 17.7811" fill="none" xmlns="http://www.w3.org/2000/svg">
<g id="Icon" clip-path="url(#clip0_0_97)">
<path id="Vector" d="M14.8179 7.40896C14.8179 11.1082 10.7142 14.9607 9.33616 16.1506C9.20779 16.2471 9.05152 16.2993 8.89089 16.2993C8.73027 16.2993 8.574 16.2471 8.44563 16.1506C7.06759 14.9607 2.96387 11.1082 2.96387 7.40896C2.96387 5.83702 3.58832 4.32945 4.69985 3.21792C5.81139 2.10639 7.31895 1.48193 8.89089 1.48193C10.4628 1.48193 11.9704 2.10639 13.0819 3.21792C14.1935 4.32945 14.8179 5.83702 14.8179 7.40896Z" stroke="#032846" stroke-width="1.48176" stroke-linecap="round" stroke-linejoin="round"/>
<path id="Vector_2" d="M8.89054 9.63111C10.1181 9.63111 11.1132 8.636 11.1132 7.40847C11.1132 6.18095 10.1181 5.18584 8.89054 5.18584C7.66301 5.18584 6.66791 6.18095 6.66791 7.40847C6.66791 8.636 7.66301 9.63111 8.89054 9.63111Z" stroke="#032846" stroke-width="1.48176" stroke-linecap="round" stroke-linejoin="round"/>
</g>
<defs>
<clipPath id="clip0_0_97">
<rect width="17.7811" height="17.7811" fill="white"/>
</clipPath>
</defs>
</svg>
