<svg preserveAspectRatio="xMidYMid meet" width="100%" height="100%" overflow="visible" style="display: block;" viewBox="0 0 40 39.9988" fill="none" xmlns="http://www.w3.org/2000/svg">
<g id="Group">
<path id="Vector" d="M25.455 32.2806L22.3487 31.5038C22.07 31.4344 21.875 31.1856 21.875 30.8981V30.7431C23.0263 30.0788 23.75 28.8463 23.75 27.4988C23.75 26.3644 23.2444 25.3031 22.3638 24.5875C21.4825 23.8713 20.3275 23.5963 19.1981 23.8325C17.7244 24.1406 16.5625 25.3494 16.3069 26.84C16.0362 28.4156 16.775 29.9638 18.125 30.7431V30.8981C18.125 31.1856 17.9306 31.4344 17.6519 31.5044L14.5456 32.2813C13.7094 32.4894 13.125 33.2375 13.125 34.1V39.3738C13.125 39.7188 13.405 39.9988 13.75 39.9988H26.25C26.595 39.9988 26.875 39.7188 26.875 39.3738V34.1C26.875 33.2375 26.2906 32.4894 25.455 32.2806ZM25.625 38.7488H24.375V36.8738C24.375 36.5288 24.095 36.2488 23.75 36.2488C23.405 36.2488 23.125 36.5288 23.125 36.8738V38.7488H16.875V36.8738C16.875 36.5288 16.595 36.2488 16.25 36.2488C15.905 36.2488 15.625 36.5288 15.625 36.8738V38.7488H14.375V34.1C14.375 33.8125 14.57 33.5631 14.8487 33.4938L17.955 32.7169C18.7906 32.5081 19.375 31.76 19.375 30.8981V30.36C19.375 30.1119 19.2281 29.8869 19.0006 29.7875C17.9431 29.3244 17.3419 28.1994 17.5388 27.0513C17.7063 26.0775 18.4937 25.2569 19.4537 25.0563C20.2256 24.8956 20.9787 25.0731 21.5756 25.5575C22.1631 26.035 22.5 26.7425 22.5 27.4988C22.5 28.49 21.9112 29.3881 20.9994 29.7875C20.7719 29.8869 20.625 30.1113 20.625 30.36V30.8981C20.625 31.76 21.2094 32.5081 22.045 32.7169L25.1513 33.4938C25.43 33.5631 25.625 33.8125 25.625 34.1V38.7488Z" fill="white"/>
<path id="Vector_2" d="M13.125 28.1238C13.47 28.1238 13.75 27.8438 13.75 27.4988V22.225C13.75 21.3631 13.1656 20.615 12.33 20.4056L9.22375 19.6288C8.945 19.5594 8.75 19.3106 8.75 19.0231V18.8681C9.90125 18.2038 10.625 16.9713 10.625 15.6238C10.625 14.4894 10.1194 13.4281 9.23875 12.7125C8.3575 11.9956 7.2025 11.7219 6.07313 11.9575C4.59937 12.2656 3.4375 13.4744 3.18188 14.965C2.91125 16.54 3.64937 18.0881 5 18.8681V19.0231C5 19.3106 4.80563 19.5594 4.52688 19.6294L1.42063 20.4063C0.584375 20.6144 0 21.3625 0 22.225V27.4988C0 27.8438 0.28 28.1238 0.625 28.1238H13.125ZM1.25 22.225C1.25 21.9375 1.445 21.6881 1.72375 21.6188L4.83 20.8419C5.66563 20.6331 6.25 19.885 6.25 19.0231V18.485C6.25 18.2369 6.10313 18.0119 5.87563 17.9125C4.81812 17.4494 4.21687 16.3244 4.41375 15.1763C4.58125 14.2025 5.36875 13.3819 6.32875 13.1813C7.10125 13.0213 7.85437 13.1981 8.45062 13.6825C9.03812 14.16 9.375 14.8675 9.375 15.6238C9.375 16.615 8.78625 17.5131 7.87437 17.9125C7.64687 18.0119 7.5 18.2363 7.5 18.485V19.0231C7.5 19.885 8.08438 20.6331 8.92 20.8419L12.0263 21.6188C12.305 21.6881 12.5 21.9375 12.5 22.225V26.8738H11.25V24.9988C11.25 24.6538 10.97 24.3738 10.625 24.3738C10.28 24.3738 10 24.6538 10 24.9988V26.8738H3.75V24.9988C3.75 24.6538 3.47 24.3738 3.125 24.3738C2.78 24.3738 2.5 24.6538 2.5 24.9988V26.8738H1.25V22.225Z" fill="white"/>
<path id="Vector_3" d="M38.58 20.4056L35.4737 19.6288C35.195 19.5594 35 19.3106 35 19.0231V18.8681C36.1513 18.2038 36.875 16.9713 36.875 15.6238C36.875 14.4894 36.3694 13.4281 35.4888 12.7125C34.6075 11.9956 33.4525 11.7219 32.3231 11.9575C30.8494 12.2656 29.6875 13.4744 29.4319 14.965C29.1612 16.5406 29.9 18.0888 31.25 18.8681V19.0231C31.25 19.3106 31.0556 19.5594 30.7769 19.6294L27.6706 20.4063C26.8344 20.6144 26.25 21.3625 26.25 22.225V27.4988C26.25 27.8438 26.53 28.1238 26.875 28.1238H39.375C39.72 28.1238 40 27.8438 40 27.4988V22.225C40 21.3625 39.4156 20.6144 38.58 20.4056ZM38.75 26.8738H37.5V24.9988C37.5 24.6538 37.22 24.3738 36.875 24.3738C36.53 24.3738 36.25 24.6538 36.25 24.9988V26.8738H30V24.9988C30 24.6538 29.72 24.3738 29.375 24.3738C29.03 24.3738 28.75 24.6538 28.75 24.9988V26.8738H27.5V22.225C27.5 21.9375 27.695 21.6881 27.9737 21.6188L31.08 20.8419C31.9156 20.6331 32.5 19.885 32.5 19.0231V18.485C32.5 18.2369 32.3531 18.0119 32.1256 17.9125C31.0681 17.4494 30.4669 16.3244 30.6638 15.1763C30.8313 14.2025 31.6187 13.3819 32.5787 13.1813C33.3512 13.0213 34.1044 13.1981 34.7006 13.6825C35.2881 14.16 35.625 14.8675 35.625 15.6238C35.625 16.615 35.0362 17.5131 34.1244 17.9125C33.8969 18.0119 33.75 18.2363 33.75 18.485V19.0231C33.75 19.885 34.3344 20.6331 35.17 20.8419L38.2763 21.6188C38.555 21.6881 38.75 21.9375 38.75 22.225V26.8738Z" fill="white"/>
<path id="Vector_4" d="M18.125 6.99313V7.14813C18.125 7.43563 17.9306 7.68439 17.6519 7.75439L14.5456 8.53126C13.7094 8.73939 13.125 9.48751 13.125 10.35V15.6238C13.125 15.9688 13.405 16.2488 13.75 16.2488H26.25C26.595 16.2488 26.875 15.9688 26.875 15.6238V10.35C26.875 9.48814 26.2906 8.74001 25.455 8.53063L22.3487 7.75376C22.07 7.68438 21.875 7.43563 21.875 7.14813V6.99313C23.0263 6.32876 23.75 5.09626 23.75 3.74876C23.75 2.61438 23.2444 1.55313 22.3638 0.837509C21.4825 0.121259 20.3275 -0.153116 19.1981 0.0825093C17.7244 0.390634 16.5625 1.59938 16.3069 3.09001C16.0362 4.66501 16.7744 6.21313 18.125 6.99313ZM17.5388 3.30126C17.7063 2.32751 18.4937 1.50688 19.4537 1.30626C20.2256 1.14501 20.9787 1.32313 21.5756 1.80751C22.1631 2.28501 22.5 2.99251 22.5 3.74876C22.5 4.74001 21.9112 5.63814 20.9994 6.03751C20.7719 6.13689 20.625 6.36126 20.625 6.61001V7.14813C20.625 8.01001 21.2094 8.75813 22.045 8.96688L25.1513 9.74376C25.43 9.81313 25.625 10.0625 25.625 10.35V14.9988H24.375V13.1238C24.375 12.7788 24.095 12.4988 23.75 12.4988C23.405 12.4988 23.125 12.7788 23.125 13.1238V14.9988H16.875V13.1238C16.875 12.7788 16.595 12.4988 16.25 12.4988C15.905 12.4988 15.625 12.7788 15.625 13.1238V14.9988H14.375V10.35C14.375 10.0625 14.57 9.81313 14.8487 9.74376L17.955 8.96688C18.7906 8.75813 19.375 8.01001 19.375 7.14813V6.61001C19.375 6.36188 19.2281 6.13689 19.0006 6.03751C17.9425 5.57438 17.3419 4.44938 17.5388 3.30126Z" fill="white"/>
<path id="Vector_5" d="M18.125 19.9988C18.125 21.0325 18.9662 21.8738 20 21.8738C21.0338 21.8738 21.875 21.0325 21.875 19.9988C21.875 18.965 21.0338 18.1238 20 18.1238C18.9662 18.1238 18.125 18.965 18.125 19.9988ZM20.625 19.9988C20.625 20.3431 20.3444 20.6238 20 20.6238C19.6556 20.6238 19.375 20.3431 19.375 19.9988C19.375 19.6544 19.6556 19.3738 20 19.3738C20.3444 19.3738 20.625 19.6544 20.625 19.9988Z" fill="white"/>
<path id="Vector_6" d="M31.2181 28.9831C30.1788 30.2794 28.9275 31.3806 27.5 32.2563C27.2056 32.4369 27.1137 32.8219 27.2937 33.1156C27.4119 33.3081 27.6169 33.4138 27.8275 33.4138C27.9387 33.4138 28.0519 33.3844 28.1538 33.3219C29.7044 32.3706 31.0631 31.1738 32.1931 29.765C32.4087 29.4956 32.3656 29.1025 32.0963 28.8863C31.8275 28.6706 31.4344 28.7138 31.2181 28.9831Z" fill="white"/>
<path id="Vector_7" d="M8.165 11.4238C8.35063 11.4238 8.535 11.3413 8.65875 11.1831C10.4544 8.87751 12.8562 7.19313 15.6044 6.31126C15.9331 6.20626 16.1138 5.85376 16.0081 5.52501C15.9025 5.19626 15.5512 5.01376 15.2219 5.12126C12.2337 6.08001 9.62312 7.91063 7.67187 10.415C7.46 10.6875 7.50875 11.08 7.78063 11.2925C7.89563 11.3806 8.03125 11.4238 8.165 11.4238Z" fill="white"/>
<path id="Vector_8" d="M24.4013 6.31313C27.1488 7.19563 29.5488 8.88063 31.3438 11.185C31.4669 11.3431 31.6512 11.4263 31.8375 11.4263C31.9719 11.4263 32.1069 11.3831 32.2213 11.2944C32.4938 11.0825 32.5425 10.6894 32.3306 10.4175C30.3806 7.91376 27.7713 6.08251 24.7838 5.12313C24.455 5.01688 24.1031 5.19876 23.9975 5.52688C23.8913 5.85501 24.0725 6.20751 24.4013 6.31313Z" fill="white"/>
<path id="Vector_9" d="M12.4975 32.2613C11.09 31.3981 9.84187 30.295 8.78812 28.9825C8.57187 28.7131 8.17812 28.67 7.90937 28.8863C7.64 29.1025 7.59688 29.4956 7.81313 29.765C8.95688 31.19 10.3131 32.3888 11.8444 33.3269C11.9463 33.3894 12.0587 33.4188 12.17 33.4188C12.38 33.4188 12.5856 33.3131 12.7038 33.12C12.8838 32.8269 12.7919 32.4419 12.4975 32.2613Z" fill="white"/>
</g>
</svg>
