<svg preserveAspectRatio="xMidYMid meet" width="100%" height="100%" overflow="visible" style="display: block;" viewBox="0 0 14.7742 14.7741" fill="none" xmlns="http://www.w3.org/2000/svg">
<g id="XMLID_468_">
<path id="XMLID_469_" d="M10.9319 8.48897C10.9031 8.47516 9.82607 7.94478 9.63468 7.8759C9.55654 7.84784 9.47284 7.82045 9.38381 7.82045C9.23837 7.82045 9.1162 7.89293 9.02103 8.03529C8.91344 8.19522 8.58774 8.57594 8.4871 8.68967C8.47396 8.70468 8.45602 8.72262 8.44528 8.72262C8.43563 8.72262 8.26895 8.65398 8.21848 8.63206C7.06309 8.13018 6.18609 6.92326 6.06584 6.71973C6.04867 6.69047 6.04795 6.67719 6.0478 6.67719C6.05202 6.66169 6.09088 6.62274 6.11093 6.60264C6.16959 6.5446 6.23315 6.4681 6.29465 6.39408C6.32376 6.35902 6.35293 6.3239 6.38156 6.29081C6.47078 6.187 6.5105 6.10642 6.55655 6.01307L6.58068 5.96458C6.69311 5.74119 6.59708 5.55268 6.56605 5.49181C6.54057 5.44087 6.08579 4.34327 6.03744 4.22796C5.92117 3.9497 5.76753 3.82014 5.55402 3.82014C5.53421 3.82014 5.55402 3.82014 5.47094 3.82364C5.36978 3.82791 4.81887 3.90043 4.57529 4.05398C4.31699 4.21683 3.88 4.73593 3.88 5.64886C3.88 6.47049 4.40141 7.24628 4.62527 7.54132C4.63084 7.54876 4.64106 7.56387 4.65588 7.58555C5.5132 8.8376 6.58197 9.76549 7.66542 10.1983C8.70847 10.6149 9.2024 10.6631 9.4832 10.6631H9.48325C9.60125 10.6631 9.6957 10.6539 9.77902 10.6456L9.83188 10.6406C10.1922 10.6087 10.9841 10.1983 11.1642 9.69781C11.3061 9.30356 11.3435 8.87281 11.2491 8.71648C11.1844 8.61019 11.073 8.5567 10.9319 8.48897Z" fill="#032846"/>
<path id="XMLID_470_" d="M7.51816 0C3.51688 0 0.261605 3.23082 0.261605 7.20201C0.261605 8.48644 0.605341 9.74372 1.2565 10.8441L0.010158 14.5206C-0.0130583 14.5891 0.00421001 14.6649 0.0549119 14.7165C0.0915112 14.7539 0.141158 14.774 0.19186 14.774C0.211286 14.774 0.230857 14.7711 0.249948 14.765L4.08353 13.5468C5.13258 14.1073 6.31824 14.4032 7.5182 14.4032C11.5191 14.4033 14.774 11.1728 14.774 7.20201C14.774 3.23082 11.5191 0 7.51816 0ZM7.51816 12.903C6.38904 12.903 5.29543 12.577 4.35536 11.9601C4.32375 11.9393 4.28705 11.9287 4.25012 11.9287C4.23059 11.9287 4.21102 11.9317 4.19198 11.9377L2.27159 12.5482L2.89153 10.7192C2.91158 10.66 2.90155 10.5947 2.86462 10.5443C2.14875 9.5661 1.77033 8.41041 1.77033 7.20201C1.77033 4.05807 4.34879 1.50024 7.51811 1.50024C10.687 1.50024 13.2652 4.05807 13.2652 7.20201C13.2653 10.3456 10.6871 12.903 7.51816 12.903Z" fill="#032846"/>
</g>
</svg>
