<svg preserveAspectRatio="xMidYMid meet" width="100%" height="100%" overflow="visible" style="display: block;" viewBox="0 0 40 40" fill="none" xmlns="http://www.w3.org/2000/svg">
<g id="fi_4886480" opacity="0.46">
<path id="Vector" d="M38.125 32.5H1.875C1.70924 32.5 1.55027 32.5658 1.43306 32.6831C1.31585 32.8003 1.25 32.9592 1.25 33.125V38.125C1.25 38.2908 1.31585 38.4497 1.43306 38.5669C1.55027 38.6842 1.70924 38.75 1.875 38.75H38.125C38.2908 38.75 38.4497 38.6842 38.5669 38.5669C38.6842 38.4497 38.75 38.2908 38.75 38.125V33.125C38.75 32.9592 38.6842 32.8003 38.5669 32.6831C38.4497 32.5658 38.2908 32.5 38.125 32.5ZM7.5 33.75H8.75V37.5H7.5V33.75ZM6.25 37.5H5V33.75H6.25V37.5ZM10 33.75H11.25V37.5H10V33.75ZM12.5 33.75H13.75V37.5H12.5V33.75ZM15 33.75H16.25V37.5H15V33.75ZM17.5 33.75H18.75V37.5H17.5V33.75ZM20 33.75H21.25V37.5H20V33.75ZM22.5 33.75H23.75V37.5H22.5V33.75ZM25 33.75H26.25V37.5H25V33.75ZM27.5 33.75H28.75V37.5H27.5V33.75ZM30 33.75H31.25V37.5H30V33.75ZM2.5 33.75H3.75V37.5H2.5V33.75ZM37.5 37.5H32.5V33.75H37.5V37.5Z" fill="white"/>
<path id="Vector_2" d="M38.125 25H1.875C1.70924 25 1.55027 25.0658 1.43306 25.1831C1.31585 25.3003 1.25 25.4592 1.25 25.625V30.625C1.25 30.7908 1.31585 30.9497 1.43306 31.0669C1.55027 31.1842 1.70924 31.25 1.875 31.25H38.125C38.2908 31.25 38.4497 31.1842 38.5669 31.0669C38.6842 30.9497 38.75 30.7908 38.75 30.625V25.625C38.75 25.4592 38.6842 25.3003 38.5669 25.1831C38.4497 25.0658 38.2908 25 38.125 25ZM7.5 26.25H8.75V30H7.5V26.25ZM6.25 30H5V26.25H6.25V30ZM10 26.25H11.25V30H10V26.25ZM12.5 26.25H13.75V30H12.5V26.25ZM15 26.25H16.25V30H15V26.25ZM17.5 26.25H18.75V30H17.5V26.25ZM20 26.25H21.25V30H20V26.25ZM22.5 26.25H23.75V30H22.5V26.25ZM2.5 26.25H3.75V30H2.5V26.25ZM37.5 30H25V26.25H37.5V30Z" fill="white"/>
<path id="Vector_3" d="M38.125 17.5H1.875C1.70924 17.5 1.55027 17.5658 1.43306 17.6831C1.31585 17.8003 1.25 17.9592 1.25 18.125V23.125C1.25 23.2908 1.31585 23.4497 1.43306 23.5669C1.55027 23.6842 1.70924 23.75 1.875 23.75H38.125C38.2908 23.75 38.4497 23.6842 38.5669 23.5669C38.6842 23.4497 38.75 23.2908 38.75 23.125V18.125C38.75 17.9592 38.6842 17.8003 38.5669 17.6831C38.4497 17.5658 38.2908 17.5 38.125 17.5ZM7.5 18.75H8.75V22.5H7.5V18.75ZM6.25 22.5H5V18.75H6.25V22.5ZM10 18.75H11.25V22.5H10V18.75ZM12.5 18.75H13.75V22.5H12.5V18.75ZM15 18.75H16.25V22.5H15V18.75ZM2.5 18.75H3.75V22.5H2.5V18.75ZM37.5 22.5H17.5V18.75H37.5V22.5Z" fill="white"/>
<path id="Vector_4" d="M25.2813 3.81875L20.2813 1.31875C20.194 1.27479 20.0977 1.25189 20 1.25189C19.9023 1.25189 19.806 1.27479 19.7187 1.31875L14.7187 3.81875C14.6157 3.87069 14.529 3.95015 14.4683 4.04833C14.4077 4.14652 14.3753 4.25958 14.375 4.375V6.44375L9.78125 8.1625C9.66162 8.2072 9.55856 8.28746 9.48593 8.3925C9.4133 8.49753 9.37458 8.6223 9.375 8.75V15.625C9.375 15.7908 9.44085 15.9497 9.55806 16.0669C9.67527 16.1842 9.83424 16.25 10 16.25H30C30.1658 16.25 30.3247 16.1842 30.4419 16.0669C30.5592 15.9497 30.625 15.7908 30.625 15.625V8.75C30.6254 8.6223 30.5867 8.49753 30.5141 8.3925C30.4414 8.28746 30.3384 8.2072 30.2187 8.1625L25.625 6.44375V4.375C25.6246 4.25958 25.5923 4.14652 25.5317 4.04833C25.471 3.95015 25.3843 3.87069 25.2813 3.81875ZM20 2.575L24.375 4.7625V15H22.5V9.375C22.5 9.20924 22.4342 9.05027 22.3169 8.93306C22.1997 8.81585 22.0408 8.75 21.875 8.75H18.125C17.9592 8.75 17.8003 8.81585 17.6831 8.93306C17.5658 9.05027 17.5 9.20924 17.5 9.375V15H15.625V4.7625L20 2.575ZM21.25 15H18.75V10H21.25V15ZM10.625 9.18125L14.375 7.775V15H10.625V9.18125ZM29.375 9.18125V15H25.625V7.775L29.375 9.18125Z" fill="white"/>
<path id="Vector_5" d="M11.875 9.375H13.125V10.625H11.875V9.375Z" fill="white"/>
<path id="Vector_6" d="M11.875 11.25H13.125V12.5H11.875V11.25Z" fill="white"/>
<path id="Vector_7" d="M11.875 13.125H13.125V14.375H11.875V13.125Z" fill="white"/>
<path id="Vector_8" d="M26.875 9.375H28.125V10.625H26.875V9.375Z" fill="white"/>
<path id="Vector_9" d="M26.875 11.25H28.125V12.5H26.875V11.25Z" fill="white"/>
<path id="Vector_10" d="M26.875 13.125H28.125V14.375H26.875V13.125Z" fill="white"/>
<path id="Vector_11" d="M18.125 4.375H19.375V5.625H18.125V4.375Z" fill="white"/>
<path id="Vector_12" d="M20.625 4.375H21.875V5.625H20.625V4.375Z" fill="white"/>
<path id="Vector_13" d="M18.125 6.25H19.375V7.5H18.125V6.25Z" fill="white"/>
<path id="Vector_14" d="M20.625 6.25H21.875V7.5H20.625V6.25Z" fill="white"/>
</g>
</svg>
