<svg preserveAspectRatio="xMidYMid meet" width="100%" height="100%" overflow="visible" style="display: block;" viewBox="0 0 40 40" fill="none" xmlns="http://www.w3.org/2000/svg">
<g id="fi_15187843" opacity="0.6">
<path id="Vector" fill-rule="evenodd" clip-rule="evenodd" d="M15.4755 11.6242C15.7251 11.4638 16.0576 11.5354 16.218 11.785L16.4821 12.1936L17.8217 11.1209C18.0541 10.9356 18.392 10.9732 18.5782 11.2051C18.763 11.437 18.7254 11.7754 18.494 11.9612L16.6883 13.4054C16.4408 13.6037 16.0734 13.5453 15.9006 13.2768L15.3148 12.3676C15.1539 12.1179 15.2254 11.7854 15.4755 11.6242ZM12.877 18.1784L11.0713 19.6226C10.8216 19.822 10.4563 19.762 10.2835 19.4944L9.69776 18.5852C9.53736 18.3351 9.60896 18.0026 9.85856 17.8418C10.1078 17.681 10.4407 17.753 10.602 18.0026L10.8647 18.4113L12.2052 17.339C12.4376 17.1532 12.7751 17.1913 12.9608 17.4227C13.1466 17.6542 13.1094 17.9926 12.877 18.1784ZM7.34432 11.2051C7.5296 11.437 7.492 11.7754 7.26056 11.9612L5.4548 13.4054C5.20696 13.6039 4.83976 13.545 4.66704 13.2768L4.0808 12.3676C3.92 12.118 3.992 11.7855 4.24208 11.6242C4.49168 11.4638 4.82424 11.5354 4.98456 11.785L5.24824 12.1937L6.58824 11.121C6.82064 10.9356 7.15904 10.9732 7.34432 11.2051ZM15.0406 25.509C15.0406 25.8062 14.7997 26.0468 14.503 26.0468H13.3514V29.6374C13.3514 29.9341 13.1108 30.1751 12.8141 30.1751C12.5174 30.1751 12.2763 29.9341 12.2763 29.6374V26.0468H11.1252C10.8285 26.0468 10.5874 25.8062 10.5874 25.509C10.5874 25.2123 10.8285 24.9718 11.1252 24.9718H14.5029C14.7996 24.9718 15.0406 25.2123 15.0406 25.509ZM19.6841 29.434C19.7964 29.7085 19.6646 30.0225 19.3901 30.1348C19.1151 30.2476 18.8007 30.1154 18.6888 29.8413L17.4978 26.9293L16.3064 29.8413C16.1926 30.1192 15.8765 30.2462 15.6051 30.1348C15.3302 30.0225 15.1988 29.7085 15.3116 29.434L17.0005 25.3057C17.1822 24.8611 17.8142 24.8626 17.9953 25.3057L19.6841 29.434ZM25.3721 25.8384L24.0302 27.5734L25.3721 29.3085C25.6478 29.6656 25.3803 30.1751 24.9471 30.1751C24.7863 30.1751 24.6273 30.1035 24.5213 29.9662L23.3507 28.4527L22.1802 29.9662C21.9985 30.2018 21.661 30.2449 21.4258 30.0627C21.1916 29.881 21.1477 29.5435 21.3298 29.3084L22.6712 27.5734L21.3298 25.8383C21.1477 25.6032 21.1917 25.2657 21.4258 25.0841C21.661 24.902 21.9985 24.9459 22.1802 25.1801L23.3507 26.6941L24.5213 25.1801C24.7025 24.9458 25.0409 24.9028 25.2755 25.0841C25.5102 25.2658 25.5533 25.6033 25.3721 25.8384ZM34.9819 23.4922L36.4687 20.9164L34.9022 19.1768C34.7934 19.0554 34.7445 18.891 34.7713 18.7301C34.9009 17.946 34.9009 17.1449 34.7718 16.3618C34.7455 16.2014 34.7935 16.036 34.9022 15.9146L36.4688 14.1755L34.982 11.6006L32.6911 12.0871C32.5312 12.1211 32.3641 12.0803 32.2372 11.9762C31.6206 11.4688 30.9316 11.071 30.1891 10.792C30.036 10.7345 29.9178 10.6108 29.8666 10.4554L29.144 8.22936H26.1709L25.4474 10.4546C25.3971 10.6108 25.2784 10.7346 25.1248 10.7921C24.3823 11.0711 23.6933 11.4689 23.0767 11.9762C22.9508 12.0804 22.7832 12.1212 22.6228 12.0872L20.3319 11.6006L20.3084 11.6414V17.5573H22.3184C22.3184 14.5979 24.7125 12.2072 27.6572 12.2072C30.6014 12.2072 32.9965 14.6018 32.9965 17.546C32.9965 20.202 31.0476 22.4282 28.4731 22.8227V26.8627H29.1441L29.8666 24.6375C29.9178 24.4822 30.0361 24.358 30.1892 24.3005C30.9335 24.0218 31.623 23.6232 32.2382 23.1158C32.365 23.0121 32.5322 22.9709 32.6916 23.0054L34.9819 23.4922ZM26.3592 17.5573H23.3938C23.3938 15.191 25.3054 13.2822 27.6571 13.2822C30.0078 13.2822 31.9209 15.1948 31.9209 17.5459C31.9209 19.6103 30.4463 21.3486 28.473 21.7309V19.3566C28.473 18.3646 27.5248 17.5573 26.3592 17.5573ZM27.398 36.0589V19.3567C27.398 18.9649 26.9223 18.6328 26.3592 18.6328H20.3083V21.6472C20.3083 21.9439 20.0673 22.1845 19.7706 22.1845H8.67352V36.059L11.093 34.0539C11.2919 33.889 11.5801 33.889 11.7789 34.0539L14.7357 36.5047L17.6925 34.0539C17.8918 33.889 18.1799 33.889 18.3783 34.0539L21.3356 36.5047L24.2924 34.0539C24.4917 33.889 24.7798 33.889 24.9782 34.0539L27.398 36.0589ZM3.45792 15.9713H7.8648V21.1094H3.45792V15.9713ZM3.45792 5.59272H5.23328V6.8408C5.23328 7.39936 5.6872 7.85376 6.24624 7.85376H7.68C8.23808 7.85376 8.69296 7.39936 8.69296 6.8408V5.59272H13.9982V6.8408C13.9982 7.39936 14.4526 7.85376 15.0112 7.85376H16.4446C17.004 7.85376 17.4575 7.39936 17.4575 6.8408V5.59272H19.2334V8.68232H3.45792V5.59272ZM6.30872 3.33264V6.77872H7.61752V3.33264H6.30872ZM15.0732 3.33264V6.77872H16.3824V3.33264H15.0732ZM14.8263 15.9713H19.2333V21.1094H14.8263V15.9713ZM8.94032 15.9713V21.1094H13.7509V15.9713H8.94032ZM8.94032 9.75776H13.7509V14.8958H8.94032V9.75776ZM19.2333 14.8958V9.75776H14.8263V14.8958H19.2333ZM3.45792 9.75776V14.8958H7.8648V9.75776H3.45792ZM37.4227 20.3696L35.8707 18.6454C35.9686 17.917 35.9685 17.1738 35.8707 16.4456L37.4227 14.7223C37.6429 14.4786 37.6801 14.123 37.5156 13.8385L35.7969 10.8613C35.6329 10.5768 35.3067 10.4314 34.9855 10.5002L32.7159 10.9827C32.1306 10.531 31.4914 10.1614 30.8106 9.88096L30.0943 7.67656C29.9933 7.364 29.7047 7.15424 29.3754 7.15424H25.9384C25.6099 7.15424 25.3214 7.364 25.2194 7.67656L24.5032 9.88096C23.8223 10.1614 23.1836 10.531 22.5987 10.9827L20.3291 10.5002C20.3218 10.4989 20.3155 10.498 20.3083 10.4966V5.05544C20.3083 4.75872 20.0673 4.51768 19.7706 4.51768H17.4574V3.2692C17.4574 2.712 17.004 2.25896 16.4445 2.25896H15.0112C14.4526 2.25896 13.9982 2.712 13.9982 3.2692V4.51768H8.69296V3.2692C8.69296 2.712 8.23816 2.25896 7.68 2.25896H6.24624C5.6872 2.25896 5.23328 2.712 5.23328 3.2692V4.51768H2.92016C2.62344 4.51768 2.3824 4.75872 2.3824 5.05544V21.6471C2.3824 21.9438 2.62344 22.1844 2.92016 22.1844H7.598V37.2028C7.598 37.6563 8.13016 37.9063 8.47912 37.6174L11.4359 35.1666L14.3932 37.6174C14.5916 37.7822 14.8798 37.7822 15.079 37.6174L18.0358 35.1666L20.9927 37.6174C21.1916 37.7822 21.4797 37.7822 21.6786 37.6174L24.6358 35.1666L27.5926 37.6174C27.9408 37.9052 28.4729 37.6595 28.4729 37.2028V27.9377H29.3753C29.7046 27.9377 29.9932 27.7279 30.0942 27.4154L30.8105 25.211C31.4922 24.9306 32.1319 24.5618 32.7168 24.1092L34.9855 24.5917C35.3058 24.6596 35.6329 24.5151 35.7969 24.2302L37.5156 21.2534C37.6801 20.969 37.643 20.6134 37.4227 20.3696Z" fill="white"/>
</g>
</svg>
