<svg preserveAspectRatio="xMidYMid meet" width="100%" height="100%" overflow="visible" style="display: block;" viewBox="0 0 17 17" fill="none" xmlns="http://www.w3.org/2000/svg">
<g id="Icon" clip-path="url(#clip0_0_95)">
<path id="Vector" d="M9.98745 11.7359C10.1337 11.8031 10.2985 11.8184 10.4547 11.7794C10.6109 11.7404 10.7491 11.6493 10.8467 11.5212L11.0981 11.1919C11.2301 11.0159 11.4012 10.8731 11.5979 10.7748C11.7946 10.6764 12.0115 10.6252 12.2314 10.6252H14.3564C14.7322 10.6252 15.0925 10.7745 15.3582 11.0401C15.6239 11.3058 15.7731 11.6661 15.7731 12.0419V14.1669C15.7731 14.5426 15.6239 14.9029 15.3582 15.1686C15.0925 15.4343 14.7322 15.5835 14.3564 15.5835C10.9749 15.5835 7.73192 14.2402 5.34083 11.8491C2.94975 9.45806 1.60645 6.21505 1.60645 2.83354C1.60645 2.45781 1.7557 2.09748 2.02138 1.8318C2.28705 1.56613 2.64739 1.41687 3.02311 1.41687H5.14811C5.52384 1.41687 5.88417 1.56613 6.14985 1.8318C6.41552 2.09748 6.56478 2.45781 6.56478 2.83354V4.95854C6.56478 5.17847 6.51357 5.39538 6.41522 5.59209C6.31686 5.7888 6.17406 5.95991 5.99811 6.09187L5.66661 6.3405C5.53657 6.43979 5.44492 6.58104 5.40721 6.74024C5.36951 6.89945 5.38808 7.0668 5.45978 7.21387C6.42784 9.18011 8.02 10.7703 9.98745 11.7359Z" stroke="#032846" stroke-width="1.41667" stroke-linecap="round" stroke-linejoin="round"/>
</g>
<defs>
<clipPath id="clip0_0_95">
<rect width="17" height="17" fill="white"/>
</clipPath>
</defs>
</svg>
