<svg width="363" height="69" viewBox="0 0 363 69" fill="none" xmlns="http://www.w3.org/2000/svg">
<path d="M68.5769 68.3217H15.3086C13.2108 68.3217 11.2433 67.8512 9.40061 66.9156C7.53523 65.9801 5.90231 64.7101 4.50753 63.1055C3.10708 61.5009 2.00712 59.6129 1.20201 57.4357C0.396887 55.2868 0 52.9905 0 50.5411V0.283569H15.1555L14.9854 50.955C14.9854 51.8509 15.2632 52.6446 15.8189 53.3307C16.3745 54.0168 17.0549 54.3626 17.86 54.3626L68.5769 54.1471V68.3217Z" fill="white"/>
<path d="M273.723 0.283569L223.012 68.3217H215.755L165.044 0.283569H183.006L219.384 49.0896L255.761 0.283569H273.723Z" fill="white"/>
<path d="M159.924 68.0382H91.1259C83.3412 68.0382 77.0306 61.7277 77.0306 53.943V53.8636H145.829C153.613 53.8636 159.924 60.1741 159.924 67.9588V68.0382Z" fill="white"/>
<path d="M159 41.3899H144.825H92.1408C84.3107 41.3899 77.9662 35.0454 77.9662 27.2153H144.825C152.655 27.2153 159 33.5599 159 41.3899Z" fill="white"/>
<path d="M159 14.1746H92.1408C84.3107 14.1746 77.9662 7.83008 77.9662 1.52588e-05H144.825C152.655 1.52588e-05 159 6.34458 159 14.1746Z" fill="white"/>
<path d="M362.184 68.0382H293.386C285.602 68.0382 279.291 61.7277 279.291 53.943V53.8636H348.089C355.874 53.8636 362.184 60.1741 362.184 67.9588V68.0382Z" fill="white"/>
<path d="M361.26 41.3899H347.085H294.401C286.571 41.3899 280.227 35.0454 280.227 27.2153H347.085C354.915 27.2153 361.26 33.5599 361.26 41.3899Z" fill="white"/>
<path d="M361.26 14.1746H294.401C286.571 14.1746 280.227 7.83008 280.227 1.52588e-05H347.085C354.915 1.52588e-05 361.26 6.34458 361.26 14.1746Z" fill="white"/>
</svg>
