<svg preserveAspectRatio="xMidYMid meet" width="100%" height="100%" overflow="visible" style="display: block;" viewBox="0 0 124.999 36.2944" fill="none" xmlns="http://www.w3.org/2000/svg">
<g id="Group 32">
<path id="Union" d="M58.8207 4.99405C60.62 4.83382 61.9954 5.11691 63.4467 6.03409C65.3022 7.20467 66.7492 9.31352 66.975 12.0771C67.5854 19.5351 59.6139 23.4399 54.561 18.912C49.9767 14.8032 51.9191 5.88172 58.5033 5.02725L58.8207 4.99405ZM40.7709 5.87979C42.1443 5.12759 43.9691 4.71115 45.7543 5.06046C46.7538 5.25577 47.1723 5.53515 48.0053 5.88761C48.5211 6.10584 48.8073 6.00008 49.0698 5.65518C49.4097 5.20666 49.1719 4.8455 49.7699 4.97061L50.1196 10.1571C49.6007 10.1495 49.8539 10.2822 49.5151 9.36807C48.5734 6.82582 46.5952 5.24015 43.6713 5.788C40.685 6.34818 39.4367 9.08006 39.31 12.4159C39.1757 15.9748 40.3204 18.6627 43.101 19.5448C44.5476 20.0041 46.3999 19.9091 47.6391 19.1982C48.2449 18.8502 48.7657 18.3556 49.1274 17.9237C49.8672 17.0393 49.9671 16.6984 50.3617 16.7802L50.4448 16.8007C50.1029 17.7972 49.2099 18.5938 48.7963 19.0517C48.5796 19.2912 48.6296 19.2512 48.4037 19.4267C46.7297 20.7237 44.6441 21.1131 42.3871 20.6493C35.4129 19.2133 34.9397 9.07392 40.7709 5.87979ZM85.3539 5.23819C87.6446 5.23816 91.4291 4.98398 92.9535 6.39249C94.2001 7.54459 94.6507 9.0887 93.9535 10.6894C93.4973 11.7362 92.647 12.3715 91.6459 12.7607L90.6625 13.0888L93.5805 17.3603C94.3755 18.4818 95.1281 19.5179 96.4067 19.9071C97.6014 20.2718 97.5306 19.8906 97.5336 20.496L93.724 20.5194C93.3168 20.5193 93.1353 20.0326 92.809 19.5917L89.3256 14.7831C88.0773 13.0037 88.6406 13.4214 86.7055 13.3817L86.7006 17.6776C86.7006 19.8034 86.9559 20.1346 88.8998 20.1347V20.5224C87.5946 20.5239 83.3669 20.5816 82.3793 20.5038V20.1542C83.0857 20.0886 83.7693 20.1423 84.1752 19.7245C84.5383 19.3492 84.5678 18.5631 84.5678 17.9101V7.92862C84.5677 5.56812 83.9678 5.76034 82.3793 5.60929L82.3774 5.60733V5.25675C83.2656 5.17586 84.4352 5.23819 85.3539 5.23819ZM109.54 5.23721C109.824 5.23778 110.159 6.19879 110.358 6.64737C111.241 8.6526 114.805 16.0111 115.199 17.1591C115.319 17.0523 115.193 17.2291 115.356 16.9716L115.955 15.6435C116.818 13.7249 120.279 6.38831 120.682 5.24796L124.999 5.23917V5.62589C123.315 5.62438 122.841 5.87057 122.841 7.84952V17.9081C122.841 19.8554 123.229 20.1347 124.999 20.1347L124.991 20.5194C123.19 20.5194 120.192 20.5789 118.532 20.5087V20.1454C120.442 20.0477 120.696 19.912 120.696 17.6015C120.696 15.5166 120.786 9.40299 120.678 7.76554C120.39 8.10279 116.208 17.52 115.488 19.0224C115.346 19.3169 115.253 19.534 115.128 19.8163C114.834 20.4843 114.866 20.5237 114.433 20.5146L108.567 7.7294C108.457 9.20524 108.54 15.6179 108.54 17.6796C108.54 19.7412 108.666 20.1396 110.697 20.1366V20.5214H105.391V20.1366C107.134 20.1366 107.555 19.8419 107.555 17.9101V7.9296C107.555 6.18221 107.138 5.64157 105.392 5.62784L105.391 5.62296V5.23721H109.54ZM68.81 5.28214C69.1729 5.19669 80.8615 5.19363 81.2446 5.28214L81.3823 8.08194C81.4097 8.71015 81.4793 8.72427 81.2846 8.78214C80.9153 8.89202 80.9458 8.48631 80.9321 8.42374C80.7489 7.55696 80.5605 6.86147 79.6342 6.4296C78.7919 6.03748 77.1091 6.16687 76.0561 6.1669C76.0118 8.83908 76.0532 11.5497 76.0532 14.2265C76.0531 15.5693 76.0176 16.963 76.0649 18.2997C76.126 20.0389 76.5655 20.0685 78.2026 20.1493V20.5243H71.7426V20.1386C73.348 20.1386 73.8552 19.8834 73.8949 18.2187C73.9255 16.8987 73.8998 15.5495 73.8998 14.2265C73.8998 11.5497 73.9326 8.85235 73.8959 6.17862C73.035 6.12522 70.9828 6.08439 70.3237 6.41397C69.9101 6.62149 69.5839 7.00772 69.3901 7.39835C68.8361 8.51386 69.3958 8.80548 68.6283 8.77042L68.81 5.28214ZM104.435 5.24014V5.62784C102.73 5.62784 102.252 5.85228 102.252 7.85147V17.8329C102.252 19.8138 102.578 20.1366 104.435 20.1366V20.5204H97.9164V20.1366C99.9003 20.1351 100.091 19.7014 100.091 17.6796V8.08194C100.09 5.98671 99.8472 5.62788 97.9155 5.62784H97.9184V5.24014H104.435ZM63.0112 7.38858C62.0177 6.06107 60.4155 5.46005 58.7338 5.76065C55.4101 6.35581 54.4344 9.99215 54.6694 13.7646C54.8815 17.1631 56.5162 20.6612 60.3237 19.996C65.6894 19.059 64.9875 10.0287 63.0112 7.38858ZM90.2739 6.46378C89.1034 5.72211 88.0197 6.0777 86.6996 6.29288V12.6903C88.0945 12.6964 89.2193 12.6595 90.2739 12.0048C92.2148 10.8006 92.2622 7.72431 90.2739 6.46378Z" fill="white"/>
<path id="Union_2" d="M61.2061 24.9306C62.1217 24.4713 62.4228 24.9171 62.8623 24.9492C63.3581 24.9858 63.2635 24.8762 63.4756 25.0654C63.221 25.3033 63.2618 25.2066 62.8086 25.2295C62.8239 26.8609 60.9986 26.1867 61.0215 27.0322C61.6395 27.2168 62.6743 26.8613 62.8409 27.4531C63.0224 28.1001 62.3906 28.6527 62.0274 28.8252C60.2725 29.6553 59.1524 28.0445 60.7315 27.498C60.5205 27.2016 60.2246 27.1375 60.7764 26.7509L61.0694 26.5625C60.7749 26.3016 60.4463 26.3378 60.585 25.6972C60.6613 25.3432 60.8979 25.0848 61.2061 24.9306ZM61.4717 27.4775C60.8812 27.4821 60.5304 27.6321 60.4434 28.1601C60.2864 29.1153 61.9438 29.0604 62.3116 28.1982C62.6076 27.5054 62.0394 27.4745 61.4717 27.4775ZM119.166 25.3945C119.395 24.731 120.34 24.5834 121.034 24.9023C120.995 25.1144 120.975 25.3585 120.828 25.5263L120.772 25.3457C120.628 24.924 120.913 25.622 120.733 25.2285C120.385 24.4655 119.012 25.2839 119.75 25.7402C119.858 25.8089 119.777 25.7613 119.914 25.8086C120.155 25.8909 120.779 25.9798 120.892 26.1933C121.099 27.4079 119.506 27.8672 118.754 27.3515L118.984 26.6201C119.152 26.7986 118.949 26.9225 119.175 27.165C119.319 27.3195 120.27 27.5708 120.454 26.8261L120.481 26.6611C120.04 26.0678 118.798 26.4565 119.166 25.3945ZM57.294 24.8115C59.2655 24.2469 59.336 26.8836 57.6563 27.4502C55.77 28.085 55.3788 25.3609 57.294 24.8115ZM74.7305 24.7783C76.7311 24.3465 76.5954 27.0598 74.8848 27.4873C73.9462 27.7208 73.2976 27.1222 73.4014 26.2187C73.4831 25.5108 73.94 25.0028 74.5977 24.8125L74.7305 24.7783ZM115.967 24.7783C117.967 24.3467 117.827 27.0646 116.119 27.4873C115.181 27.7192 114.534 27.1237 114.636 26.2187C114.723 25.4635 115.239 24.9355 115.967 24.7783ZM96.4619 24.7763C98.4627 24.349 98.3235 27.0595 96.6143 27.4853C95.6775 27.72 95.0297 27.1235 95.1319 26.2187C95.212 25.5134 95.6712 25.001 96.3282 24.8115L96.4619 24.7763ZM99.4971 26.0644C99.7398 24.9977 101.111 24.4356 101.877 24.8965L101.731 25.458C101.684 25.5602 101.674 25.5667 101.634 25.6201C101.623 25.6003 101.617 25.5715 101.612 25.5547L101.536 25.2978C101.497 25.2034 101.592 25.2067 101.362 25.0879C100.001 24.3842 99.063 27.6279 101.239 27.1338L101.46 27.0761C101.435 27.7245 99.0764 27.9164 99.4971 26.0644ZM77.9317 25.3945C78.159 24.7383 79.116 24.5947 79.8028 24.9013L79.6299 25.4765C79.625 25.468 79.6092 25.5121 79.5957 25.5273C79.5866 25.509 79.5818 25.4815 79.5772 25.4677L79.501 25.2285C79.4538 25.1248 79.4669 25.12 79.3711 25.0439C78.953 24.7097 78.1198 25.109 78.3487 25.5791C78.5257 25.9423 79.4852 25.8616 79.6592 26.1943C79.7721 26.4095 79.7615 27.8988 77.5166 27.4013L77.752 26.6201C77.9196 26.7986 77.7151 26.9224 77.9424 27.165C78.0983 27.3313 79.169 27.6041 79.2471 26.6631C78.8106 26.0664 77.5639 26.4612 77.9317 25.3945ZM88.1465 25.3955C88.3724 24.7424 89.3305 24.5896 90.0157 24.9023C89.9745 25.1128 89.9534 25.3585 89.8086 25.5263L89.7715 25.4072C89.7592 25.3669 89.7309 24.8587 89.0606 24.9316C88.6288 24.9789 88.2946 25.4716 88.7305 25.7402C88.9594 25.8821 89.7382 25.9416 89.8711 26.1933C89.9825 26.407 89.9778 27.8997 87.7285 27.4023L87.9629 26.6211C88.0942 26.7584 87.9527 26.5126 88.0244 26.7705L88.0489 26.8926C88.1099 27.1397 87.9633 26.9584 88.1553 27.164C88.2998 27.3185 89.2501 27.571 89.4327 26.8252L89.4619 26.664C89.0285 26.0673 87.7772 26.4622 88.1465 25.3955ZM65.7842 24.8271C67.8184 24.2235 66.6875 26.9071 66.7334 27.125C66.999 27.5096 66.9193 27.0416 67.0567 27.4277L66.2129 27.4492L66.2842 27C66.0492 27.1388 65.6737 27.4586 65.3731 27.4922C64.8773 27.547 64.5953 27.3355 64.6563 26.8457C64.7786 25.8619 65.7151 26.1102 66.4903 25.7578C66.5848 25.3521 66.4325 25.071 66.001 25.0449C65.3631 25.0048 65.5303 25.3137 65.2071 25.4795L65.1387 25.5136C65.183 25.0164 65.3295 24.9614 65.7842 24.8271ZM85.0401 24.8076C86.9033 24.3178 85.9605 26.5114 85.9483 27.2011C86.2775 27.3733 86.1614 27.1659 86.253 27.4267L85.4082 27.4482L85.4795 26.998C85.2568 27.1369 84.8663 27.4579 84.5703 27.4902C84.0744 27.5451 83.7915 27.3361 83.8526 26.8447C83.9749 25.8578 84.9109 26.1123 85.6875 25.7568C85.7835 25.3556 85.6285 25.0718 85.1983 25.0459C84.5606 25.0074 84.7312 25.3146 84.4053 25.4814L84.335 25.5127C84.3778 25.0047 84.5579 24.9342 85.0401 24.8076ZM43.9776 24.8222C46.0149 24.2179 44.883 26.9069 44.9287 27.122C45.1941 27.5077 45.1131 27.0351 45.252 27.4258L44.4063 27.4472L44.4785 26.997C44.2527 27.1374 43.866 27.4572 43.5684 27.4892C43.0711 27.544 42.7906 27.3365 42.8516 26.8437C42.9739 25.8584 43.9089 26.1097 44.6856 25.7558C44.7832 25.356 44.6276 25.0708 44.1973 25.0449C43.5595 25.0049 43.7289 25.3137 43.4043 25.4795L43.3321 25.5088C43.3748 25.0113 43.523 24.9565 43.9776 24.8222ZM106.369 25.5107C106.453 24.5646 107.766 24.6802 108.053 24.9228C108.474 25.2799 108.068 26.5559 107.966 27.122C108.231 27.505 108.15 27.0397 108.289 27.4258L107.443 27.4482L107.516 26.997C107.294 27.1374 106.899 27.4579 106.606 27.4902C106.109 27.5451 105.828 27.3358 105.889 26.8447C106.011 25.8605 106.943 26.1082 107.723 25.7558C107.819 25.3546 107.665 25.0708 107.234 25.0449C106.6 25.0064 106.766 25.3136 106.441 25.4804L106.369 25.5107ZM113.126 23.2978C112.934 24.4896 112.519 26.0109 112.463 27.2119C112.797 27.3279 112.719 27.174 112.871 27.4394L111.909 27.4472L111.988 26.9609C111.587 27.193 111.262 27.6306 110.597 27.4521C109.805 27.2398 109.582 25.7089 110.903 25.0283C111.657 24.6407 111.583 24.7212 112.369 24.8906L112.519 23.7451C112.195 23.4766 112.303 23.8486 112.147 23.498H112.146L113.126 23.2978ZM50.167 23.2988C49.9702 24.4663 49.5553 26.0418 49.5049 27.2138C49.8345 27.3313 49.7587 27.1767 49.9112 27.4404L48.9493 27.4482L49.0303 26.9599C48.6244 27.1889 48.3011 27.6312 47.6358 27.4511C46.8407 27.236 46.6255 25.7059 47.9424 25.0283C48.684 24.6468 48.6246 24.7151 49.4073 24.8906L49.5567 23.7441C49.2352 23.4762 49.3422 23.8448 49.1866 23.497L49.1895 23.499L50.167 23.2988ZM71.8955 23.2978C71.7017 24.4942 71.2911 26.0079 71.2315 27.2119C71.564 27.3263 71.4848 27.1744 71.6387 27.4394L70.6778 27.4453L70.7569 26.959C70.3556 27.1909 70.029 27.6302 69.3653 27.4502C68.851 27.3113 68.646 26.7786 68.7803 26.1377C68.9176 25.4771 69.1791 25.2806 69.6719 25.0273C70.4135 24.6474 70.3573 24.7121 71.1368 24.8906L71.2862 23.7451C70.9645 23.4784 71.0715 23.8468 70.916 23.498L71.8955 23.2978ZM91.752 25.3945C91.9735 24.7507 92.9294 24.562 93.6221 24.9023C93.6023 25.0045 93.5928 25.1358 93.5547 25.2578L93.4141 25.5263L93.3194 25.2285C93.0323 24.5986 91.9055 25.0429 92.168 25.5801C92.2766 25.8009 92.5968 25.8311 92.8682 25.9043C93.2053 25.9958 93.2828 26.0042 93.4795 26.1933C93.6885 27.4461 92.4225 27.6409 91.336 27.4013L91.5703 26.6201C91.7092 26.7666 91.549 26.4652 91.6543 26.8926C91.7152 27.1408 91.5681 26.9576 91.7618 27.165C91.912 27.3238 92.8622 27.5659 93.041 26.8252L93.0684 26.6631C92.6335 26.0664 91.3842 26.4628 91.752 25.3945ZM54.8496 24.8408C54.7293 25.0722 54.7408 24.9211 54.5303 25.0888C54.3273 25.2508 53.9311 25.933 53.7754 26.1787C53.3562 26.8384 53.1676 27.3909 52.7959 27.4736L52.7207 27.4834C52.5911 27.2178 52.4213 26.3793 52.3389 26.0449C51.9193 24.3572 51.9587 25.2981 51.8077 24.8193H53.127C53.031 25.0159 53.1009 24.9003 52.8965 25.0009C52.8919 25.004 52.7198 25.0552 52.6797 25.0752C52.6828 25.3071 52.9345 26.6551 53.1084 26.8779C53.4106 26.4643 53.9198 25.6214 54.1182 25.1269C53.9658 24.8956 53.8774 25.0644 53.7813 24.8174L54.8496 24.8408ZM104.238 24.7666C104.226 25.4913 103.869 26.3823 103.877 27.2002C103.972 27.255 104.081 27.2801 104.086 27.2832C104.275 27.3987 104.161 27.2158 104.249 27.4384L102.848 27.4492C102.994 27.1425 102.938 27.3419 103.333 27.2168L103.661 25.2041C103.554 25.1514 103.522 25.1326 103.481 25.1269L103.243 25.1279C103.364 24.8503 103.518 24.9451 104.238 24.7666ZM57.5703 27.292C58.512 26.9822 58.6447 24.5435 57.3643 24.9677C56.7937 25.157 56.603 25.6132 56.5801 26.2861C56.5572 26.9377 56.8379 27.533 57.5703 27.292ZM96.6514 27.292C97.5915 26.9837 97.7287 24.5458 96.4453 24.9668C95.8746 25.1545 95.6841 25.6161 95.6612 26.2861C95.6384 26.9406 95.9191 27.5314 96.6514 27.292ZM116.156 27.29C117.093 26.984 117.233 24.5451 115.948 24.9677L115.95 24.9658C115.379 25.155 115.189 25.6091 115.165 26.2851C115.142 26.9366 115.422 27.5296 116.156 27.29ZM74.8633 27.3076C75.8751 27.0527 76.0105 24.542 74.7149 24.9677H74.7168C74.1446 25.1554 73.9556 25.6162 73.9327 26.2861C73.9098 26.9179 74.1583 27.4861 74.8633 27.3076ZM66.4649 25.9697C66.1856 26.0124 65.7043 26.0966 65.4815 26.2187C64.8284 26.5759 65.1995 27.6789 66.1182 26.9297C66.3941 26.7053 66.4145 26.3999 66.4649 25.9697ZM44.6602 25.9726C44.385 26.014 43.8942 26.1026 43.6797 26.2197C43.0284 26.5724 43.3954 27.6789 44.3155 26.9297C44.5866 26.7087 44.6145 26.399 44.6602 25.9726ZM107.697 25.9717C107.418 26.0144 106.939 26.0977 106.716 26.2197C106.063 26.5737 106.435 27.6789 107.351 26.9297C107.558 26.7603 107.622 26.5481 107.661 26.2705L107.697 25.9717ZM85.6621 25.9707C85.3826 26.0135 84.904 26.0995 84.6817 26.2197C84.4634 26.3387 84.1858 26.833 84.4727 27.0879C84.7124 27.3011 85.1746 27.0446 85.3164 26.9287C85.5908 26.7044 85.6103 26.4008 85.6621 25.9707ZM49.2246 25.9287C49.4047 25.0256 48.7792 24.9304 48.3702 25.0371C47.2195 25.3393 47.2514 27.4467 48.4707 27.1064C48.974 26.9659 49.1056 26.5297 49.2246 25.9287ZM71.0039 25.3564C69.89 24.3664 69.0003 25.7477 69.3116 26.6572C69.4918 27.1834 70.1177 27.2887 70.545 26.9013C70.8441 26.6297 71.0411 25.9104 71.003 25.3564H71.0039ZM112.236 25.3584C111.125 24.3664 110.234 25.7471 110.544 26.6582C110.716 27.1616 111.364 27.2749 111.776 26.9013C112.039 26.6623 112.222 26.0865 112.239 25.5722L112.236 25.3584ZM62.1866 25.1045C61.7928 24.6085 60.8722 25.0759 61.1485 26.2373C62.1326 26.6598 62.5847 25.6065 62.1866 25.1045Z" fill="white"/>
<g id="Group 30">
<path id="Vector" fill-rule="evenodd" clip-rule="evenodd" d="M1.98074 17.0809L9.63192 17.1386C9.63914 17.7911 9.62871 18.4428 9.63352 19.0937C9.63833 19.7133 9.56699 19.6003 8.86319 20.2993C8.44236 20.7169 3.20316 25.8784 3.01639 26.1918C3.12621 26.3713 3.15026 26.4002 3.29134 26.5413C3.78913 25.9978 4.34784 25.512 4.87047 24.9774L8.83273 21.0352C9.04435 20.8235 9.46759 20.4452 9.6199 20.2376C9.64154 20.3939 9.65276 21.6812 9.6207 21.7855C9.56298 21.973 4.24844 27.0214 4.05686 27.3621C4.1298 27.4711 4.32219 27.6795 4.432 27.7445C4.51857 27.6964 4.45846 27.7389 4.533 27.6675L7.59668 24.5582C7.89968 24.2888 8.10569 24.0411 8.37904 23.767C8.60669 23.5385 9.76979 22.2496 9.96538 22.2135C10.1778 22.1742 11.2904 22.1991 11.5541 22.2151C10.5225 23.2692 9.48763 24.3089 8.44076 25.3605L6.08168 27.7196C5.85963 27.9417 5.45083 28.2799 5.27928 28.4908C5.39311 28.6094 5.46766 28.6775 5.60313 28.7657C5.95182 28.5942 8.42873 26.0259 8.92732 25.4832L10.3437 24.0371C10.791 23.6355 11.3056 23.0584 11.7289 22.5983C11.8716 22.4436 12.0311 22.2175 12.2956 22.2071C12.9048 22.1838 13.5669 22.2127 14.1842 22.2095L14.2074 33.6594C15.1677 33.5592 18.5745 31.4582 19.5516 30.7849C20.6586 30.0226 21.857 29.1994 22.8245 28.2904L23.2493 27.9096C23.9732 27.3012 25.1603 26.0267 25.5178 25.2163C25.8874 24.3786 25.978 23.3598 25.9699 22.361C25.9611 21.2692 25.9483 20.1831 25.9379 19.0865L18.7059 19.0849C18.6282 18.5502 18.6907 17.4689 18.6907 16.8765C18.6907 15.7086 18.6081 16.0212 19.3504 15.2581C19.546 15.0569 19.7328 14.907 19.9251 14.7034C20.1424 14.4741 20.2706 14.3395 20.4935 14.1423C21.1925 13.5235 21.8169 12.8357 22.5367 12.2337C22.6586 12.1319 22.7011 12.071 22.8205 11.9539L24.2954 10.6065C24.7772 10.1327 25.2846 9.74396 25.7607 9.24778C26.002 8.99608 25.9828 8.7035 25.9467 8.34919L24.1632 10.0301C23.0802 10.9952 22.0918 12.0469 21.0081 13.0048C20.4903 13.4625 19.0979 14.9303 18.6907 15.1675L18.7444 13.4104L25.9707 6.27628L25.9587 5.54523L18.1143 13.2702L16.6066 13.267L24.992 4.87991L24.5535 4.69875L15.7986 13.2509C15.6479 13.2998 13.6118 13.2702 13.288 13.2645L13.219 2.87112C11.3577 2.86311 9.268 3.13645 7.46282 3.49075C5.71134 3.83464 4.12018 4.34685 2.60037 5.00175C1.90379 5.30235 1.98555 5.13802 1.96551 5.94683C1.92703 7.51634 1.98315 9.08826 1.98315 10.665C1.98315 12.8036 1.98715 14.9423 1.98315 17.0809M13.696 19.3791C13.9389 19.8536 14.6411 20.2865 15.4691 20.1702C16.6378 20.0059 16.7925 19.2083 17.013 19.1394C17.029 19.3638 16.9785 19.751 16.8342 19.8833C16.0198 20.6288 13.0828 20.8476 12.7501 18.5983C12.4904 16.8388 13.8603 15.6805 15.4643 15.8874C16.0959 15.9691 16.2386 16.1447 16.4919 16.232C16.7444 16.3194 16.7893 16.0236 16.8494 16.4749C16.8815 16.7178 16.9745 17.1026 16.8927 17.2292C16.7669 17.1891 16.6635 16.9527 16.5705 16.834C16.2162 16.3827 15.837 16.1046 15.1645 16.0653C15.2911 16.4565 15.4106 16.5976 15.4306 17.1154C15.4459 17.5162 15.3841 17.8937 15.2214 18.2264C14.9465 18.7883 14.435 19.2484 13.696 19.3775V19.3791Z" fill="#DACBA2"/>
<path id="Vector_2" fill-rule="evenodd" clip-rule="evenodd" d="M1.29688 4.83016C1.12454 6.4125 1.26401 8.39483 1.26401 10.0189V20.6656C1.26401 23.2611 0.998689 25.092 2.77662 27.0783C3.21909 27.5729 3.61267 27.9953 4.08481 28.4298L4.79662 29.0494C5.04832 29.2538 5.27517 29.443 5.53329 29.645C7.08116 30.8522 8.5657 31.8317 10.326 32.8361C10.8029 33.1079 13.4867 34.5235 13.9812 34.493C14.2939 34.4738 15.5644 33.9175 15.8762 33.7652C17.2421 33.0974 18.0116 32.6213 19.2645 31.8317C20.6128 30.982 21.1916 30.4843 22.3667 29.6097C22.8869 29.2226 23.331 28.7825 23.8071 28.3873C23.9458 28.2727 24.0059 28.1741 24.1278 28.0643C24.4789 27.7476 24.8115 27.3749 25.1193 27.0382C26.9614 25.0294 26.644 23.3132 26.6496 20.6656V10.0189C26.6488 8.71707 26.7578 5.94276 26.6135 4.81573C26.4219 4.75801 26.1911 4.61212 25.9851 4.51513C19.396 1.40336 9.2695 1.41057 2.61309 4.21133C2.21791 4.37726 1.64798 4.61453 1.29528 4.83016M1.97984 17.0809C1.98384 14.9422 1.97984 12.8036 1.97984 10.6649C1.97984 9.08821 1.92372 7.51629 1.9622 5.94677C1.98224 5.13797 1.90048 5.30229 2.59706 5.0017C4.11768 4.3468 5.70883 3.83458 7.45951 3.4907C9.26469 3.1364 11.3544 2.86306 13.2157 2.87107L13.2847 13.2645C13.6077 13.2701 15.6445 13.2998 15.7952 13.2509C15.9035 13.2156 18.5295 10.5776 18.9439 10.1784C19.5683 9.57557 20.1791 8.94071 20.8348 8.35876L22.0805 7.14435C22.5855 6.63614 24.244 5.13476 24.5502 4.6995C24.6504 4.72355 24.6985 4.74038 24.7939 4.77886L24.9887 4.87986C24.9935 4.87184 25.0063 4.89188 25.0143 4.89909C24.8644 5.15641 23.7623 6.14477 23.4288 6.47743L17.6309 12.2144C17.4121 12.43 16.7059 13.0537 16.6024 13.2669C16.9535 13.2669 17.3054 13.2669 17.6565 13.2669C18.2409 13.2669 18.1527 13.3358 18.4693 13.0112C18.8228 12.6489 19.1675 12.3266 19.5266 11.9715C20.5727 10.9375 21.618 9.86655 22.6937 8.84693L24.2905 7.29906C24.4588 7.11068 24.648 6.9688 24.8364 6.79566L25.3791 6.28985C25.5346 6.14797 25.7486 5.8594 25.9538 5.81932C25.9522 6.3628 26.0404 6.35879 25.7614 6.67382C25.2757 7.2205 24.6681 7.65015 24.1446 8.16157L22.0476 10.2184C21.8697 10.3964 21.6893 10.5575 21.505 10.7251C21.3206 10.8926 21.1691 11.0778 20.9879 11.2557C20.6377 11.5996 20.2665 11.9042 19.9298 12.2553C19.5611 12.6401 19.2613 12.927 18.891 13.2725C18.774 13.3823 18.7002 13.3879 18.6834 13.6068C18.6457 14.1182 18.6842 14.6561 18.6858 15.1691C19.0938 14.9318 20.4854 13.4641 21.0032 13.0064C22.0869 12.0485 23.0745 10.9968 24.1582 10.0317L25.9418 8.35074C25.9778 8.70505 25.9971 8.99763 25.7558 9.24932C25.2797 9.74551 24.7723 10.1343 24.2905 10.608L22.8156 11.9555C22.6961 12.0717 22.6537 12.1334 22.5318 12.2353C21.8112 12.8372 21.1875 13.525 20.4886 14.1438C20.2657 14.341 20.1375 14.4757 19.9202 14.705C19.7278 14.9086 19.5411 15.0585 19.3455 15.2596C18.6032 16.0228 18.6858 15.7101 18.6858 16.8781C18.6858 17.4712 18.6233 18.5526 18.701 19.0864L25.933 19.088C25.9434 20.1846 25.9562 21.2708 25.965 22.3625C25.973 23.3613 25.8825 24.3801 25.5129 25.2178C25.1554 26.0282 23.9691 27.3027 23.2444 27.9112L22.8196 28.2919C21.8521 29.2001 20.6537 30.0233 19.5467 30.7865C18.5695 31.4598 15.162 33.5608 14.2025 33.661L14.1792 22.211C13.5628 22.215 12.8999 22.1854 12.2907 22.2086C12.0262 22.2191 11.8658 22.4451 11.724 22.5998C11.3007 23.0591 10.7861 23.6371 10.3388 24.0387L8.92241 25.4847C8.42382 26.0274 5.94691 28.5957 5.59821 28.7672C5.46274 28.6791 5.389 28.6117 5.27437 28.4923C5.44591 28.2815 5.85472 27.9432 6.07676 27.7212L8.43584 25.3621C9.48352 24.3112 10.5176 23.2707 11.5492 22.2167C11.2855 22.1998 10.1729 22.1758 9.96047 22.2151C9.76488 22.2511 8.60177 23.5393 8.37412 23.7685C8.10078 24.0427 7.89557 24.2904 7.59177 24.5597L4.52809 27.6691C4.45354 27.7412 4.51366 27.6979 4.42709 27.746C4.31727 27.6811 4.12409 27.4719 4.05195 27.3637C4.24353 27.023 9.55887 21.9746 9.61579 21.787C9.64785 21.6836 9.63663 20.3954 9.61498 20.2391C9.46268 20.4467 9.03864 20.8251 8.82782 21.0367L4.86556 24.9789C4.34292 25.5144 3.78421 25.9994 3.28643 26.5428C3.14535 26.4026 3.1213 26.3729 3.01148 26.1933C3.19825 25.8799 8.43825 20.7185 8.85828 20.3009C9.56288 19.6019 9.63342 19.7149 9.62861 19.0953C9.6238 18.4444 9.63502 17.7927 9.62701 17.1402L1.97583 17.0825L1.97984 17.0809Z" fill="#FFFAD5"/>
<path id="Vector_3" fill-rule="evenodd" clip-rule="evenodd" d="M0.0533893 2.93814C-0.0548254 4.86997 0.0349519 6.82826 0.0349519 8.76971V20.707C0.0349519 22.541 -0.159034 24.5298 0.517508 26.1137C1.08904 27.4516 2.29463 28.6067 3.13791 29.4203C3.94591 30.2002 5.64208 31.4507 6.46531 32.0631C8.20636 33.3577 10.1414 34.3982 12.058 35.4234C12.345 35.5773 13.8928 36.2771 14.1606 36.2939C14.6375 36.3252 17.7068 34.7036 18.1838 34.419C20.3929 33.1004 22.4466 31.8098 24.3712 30.1601C24.9925 29.6279 25.9087 28.7814 26.453 28.1706C28.6589 25.6953 28.3175 24.0657 28.3159 20.7471V8.80979C28.3159 6.86914 28.4185 4.85394 28.299 2.92612C22.1588 -0.133555 13.4608 -0.68585 6.42924 0.767433C4.86774 1.09047 2.96877 1.64357 1.50828 2.25679C1.08263 2.43554 0.382041 2.71209 0.0533893 2.93814ZM1.29906 4.83069C1.65176 4.61507 2.22169 4.3786 2.61687 4.21187C9.27248 1.41111 19.3998 1.4039 25.9888 4.51567C26.1957 4.61346 26.4257 4.75935 26.6173 4.81627C26.7616 5.9433 26.6518 8.71761 26.6534 10.0194V20.6661C26.6478 23.3138 26.9652 25.03 25.1223 27.0388C24.8137 27.3746 24.4811 27.7482 24.1308 28.0648C24.0089 28.1746 23.9488 28.2732 23.8101 28.3878C23.334 28.783 22.8899 29.2223 22.3697 29.6103C21.1945 30.4848 20.6158 30.9826 19.2675 31.8323C18.0146 32.6218 17.2451 33.098 15.8792 33.7657C15.5674 33.918 14.2968 34.4743 13.9842 34.4935C13.4896 34.524 10.8059 33.1084 10.329 32.8367C8.56868 31.8323 7.08414 30.8527 5.53627 29.6455C5.27816 29.4443 5.0513 29.2552 4.79961 29.0499L4.08779 28.4303C3.61485 27.9959 3.22207 27.5734 2.7796 27.0788C1.00167 25.0925 1.2678 23.2617 1.267 20.6661V10.0194C1.267 8.39457 1.12672 6.41223 1.29986 4.83069H1.29906Z" fill="#DACBA2"/>
<path id="Vector_4" fill-rule="evenodd" clip-rule="evenodd" d="M13.5382 19.1482C14.0761 18.8717 14.4184 18.6224 14.6685 18.0396C14.7823 17.7743 14.8528 17.4416 14.8632 17.1186C14.8785 16.636 14.7735 16.4685 14.7382 16.0749C14.3839 16.1831 14.141 16.224 13.9118 16.4364C13.6737 16.6569 13.5671 16.7491 13.4204 17.1154C13.1511 17.7855 13.2961 18.5695 13.5382 19.149" fill="#DACBA2"/>
<path id="Vector_5" fill-rule="evenodd" clip-rule="evenodd" d="M14.5116 18.2705L14.6679 18.0396C14.9108 17.4609 15.0551 16.6769 14.7857 16.006C14.6391 15.6396 14.5324 15.5483 14.2944 15.327C14.0651 15.1146 13.8222 15.0745 13.4679 14.9655L13.0423 14.9567C12.3706 14.996 11.9906 15.2749 11.6363 15.7254C11.5433 15.844 11.4399 16.0797 11.3141 16.1198C11.2323 15.9923 11.3253 15.6084 11.3573 15.3655C11.4175 14.9134 11.4624 15.2092 11.7149 15.1226C11.9682 15.0352 12.1108 14.8597 12.7425 14.7779C14.3465 14.5711 15.7164 15.7294 15.4567 17.4889C15.1248 19.7382 12.1878 19.5193 11.3726 18.7739C11.2275 18.6416 11.1778 18.2544 11.1938 18.03C11.4143 18.0981 11.569 18.8965 12.7377 19.0608C13.5657 19.1771 14.2679 18.7442 14.5108 18.2697" fill="#FEF9D4"/>
<path id="Vector_6" fill-rule="evenodd" clip-rule="evenodd" d="M13.6951 19.379L13.5387 19.1481C13.2959 18.5693 13.1516 17.7854 13.4209 17.1145C13.5676 16.7481 13.6742 16.6568 13.9123 16.4355C14.1415 16.2231 14.3844 16.183 14.7387 16.074L15.1644 16.0652C15.8361 16.1045 16.2161 16.3834 16.5704 16.8339C16.6633 16.9525 16.7667 17.1882 16.8926 17.2291C16.9744 17.1016 16.8814 16.7177 16.8493 16.4748C16.7892 16.0227 16.7443 16.3185 16.4918 16.2319C16.2385 16.1445 16.0958 15.969 15.4642 15.8872C13.8602 15.6804 12.4903 16.8387 12.75 18.5982C13.0818 20.8475 16.0189 20.6286 16.8341 19.8832C16.9792 19.7509 17.0289 19.3637 17.0128 19.1393C16.7924 19.2074 16.6377 20.0058 15.469 20.1701C14.6409 20.2864 13.9387 19.8535 13.6959 19.379" fill="#353731"/>
</g>
</g>
</svg>
