<svg preserveAspectRatio="xMidYMid meet" width="100%" height="100%" overflow="visible" style="display: block;" viewBox="0 0 226.686 65.8195" fill="none" xmlns="http://www.w3.org/2000/svg">
<g id="Group 31">
<path id="Union" d="M106.672 9.05705C109.934 8.76655 112.428 9.27865 115.059 10.9418C118.425 13.0645 121.048 16.8889 121.458 21.9008C122.565 35.4258 108.11 42.5084 98.9471 34.2973C90.6324 26.8462 94.1551 10.6656 106.097 9.11662L106.672 9.05705ZM73.9373 10.6625C76.4281 9.29812 79.7384 8.54243 82.9764 9.17619C84.7891 9.53042 85.5475 10.0369 87.0584 10.6762C87.9936 11.0719 88.5112 10.8814 88.9871 10.2563C89.6043 9.44265 89.173 8.78628 90.2577 9.0131L90.8914 18.4203C89.9507 18.4065 90.4099 18.647 89.7957 16.9897C88.0882 12.379 84.5015 9.50317 79.1991 10.4965C73.783 11.5122 71.5186 16.4662 71.2889 22.516C71.0454 28.97 73.1214 33.8441 78.1639 35.4438C80.7875 36.2767 84.1472 36.1045 86.3944 34.8149C87.493 34.1839 88.4367 33.2875 89.0926 32.5043C90.4343 30.9006 90.6154 30.2819 91.3309 30.4301L91.4813 30.4672C90.8614 32.2744 89.2421 33.719 88.492 34.5492C88.0991 34.9836 88.1903 34.9119 87.7811 35.2299C84.7451 37.5823 80.9612 38.288 76.868 37.4467C64.2207 34.8421 63.3627 16.455 73.9373 10.6625ZM149.391 9.53361C151.002 9.38695 153.122 9.5004 154.788 9.50041C158.942 9.50041 165.805 9.03872 168.57 11.5932C170.831 13.6826 171.648 16.4831 170.384 19.3861C169.556 21.2846 168.014 22.4363 166.199 23.142L164.417 23.7367L169.708 31.4828C171.15 33.517 172.515 35.3962 174.834 36.102C177 36.7633 176.87 36.0719 176.876 37.1703L169.969 37.2123C169.23 37.2123 168.9 36.3295 168.307 35.5297L161.992 26.809C159.728 23.582 160.749 24.3399 157.24 24.268L157.232 32.059C157.232 35.9139 157.694 36.515 161.22 36.5151V37.2172C158.853 37.22 151.185 37.3251 149.394 37.184V36.5502C150.676 36.4313 151.915 36.5281 152.651 35.7699C153.31 35.0892 153.363 33.6643 153.363 32.4799V14.3793C153.363 10.0984 152.275 10.4472 149.394 10.1733L149.391 10.1703V9.53361ZM198.65 9.49748C199.165 9.49763 199.774 11.2404 200.134 12.0541C201.736 15.6907 208.198 29.0364 208.912 31.1176C209.131 30.9239 208.901 31.2445 209.197 30.7768L210.282 28.3695C211.848 24.8909 218.125 11.5851 218.856 9.51701L226.685 9.50041V10.2026C223.63 10.1998 222.772 10.6463 222.772 14.2358V32.476C222.772 36.0073 223.475 36.5141 226.685 36.5141L226.669 37.2113C223.403 37.2113 217.968 37.3191 214.957 37.1918V36.5336C218.422 36.3565 218.881 36.11 218.881 31.9203C218.881 28.1399 219.044 17.0534 218.847 14.0834C218.322 14.7003 210.742 31.7732 209.435 34.4965C209.178 35.0306 209.012 35.424 208.785 35.936C208.251 37.1479 208.309 37.2201 207.523 37.2035L196.885 14.017C196.685 16.6937 196.838 28.3218 196.838 32.061C196.838 35.7999 197.064 36.5225 200.748 36.517V37.2143H191.125V36.517C194.285 36.517 195.05 35.9826 195.05 32.4789V14.3793C195.05 11.2105 194.294 10.2304 191.128 10.2055L191.125 10.1977V9.49748H198.65ZM124.786 9.57853C125.442 9.42355 146.642 9.41801 147.337 9.57853L147.586 14.6576C147.636 15.7977 147.762 15.823 147.408 15.9281C146.74 16.1268 146.794 15.3926 146.769 15.2778C146.437 13.7059 146.096 12.4438 144.417 11.6606C142.889 10.9493 139.836 11.184 137.927 11.184C137.846 16.0299 137.921 20.9451 137.921 25.7992C137.921 28.2346 137.857 30.7617 137.943 33.186C138.054 36.3408 138.851 36.3938 141.82 36.5404V37.2211H130.105V36.5209C133.017 36.5209 133.936 36.0589 134.008 33.0395C134.063 30.6456 134.016 28.1987 134.016 25.7992C134.016 20.9451 134.077 16.055 134.011 11.2065C132.45 11.1096 128.728 11.0347 127.532 11.6322C126.782 12.0086 126.189 12.7089 125.838 13.4174C124.833 15.4405 125.849 15.9693 124.457 15.9057L124.786 9.57853ZM189.391 9.50334V10.2065C186.3 10.2065 185.433 10.6132 185.433 14.2387V32.3412C185.433 35.9335 186.023 36.518 189.391 36.518V37.2153H177.571V36.518C181.169 36.5152 181.514 35.7288 181.514 32.0619V14.6567C181.512 10.8568 181.072 10.2065 177.568 10.2065H177.574V9.50334H189.391ZM114.271 13.3988C112.47 10.9911 109.563 9.90149 106.514 10.4467C100.486 11.5261 98.7172 18.1209 99.1434 24.9623C99.5282 31.1256 102.492 37.4688 109.397 36.2621C119.128 34.5628 117.855 18.1867 114.271 13.3988ZM163.711 11.7231C161.588 10.3781 159.623 11.0223 157.229 11.4125V23.0141C159.759 23.0251 161.798 22.9591 163.711 21.7719C167.231 19.5883 167.317 14.0091 163.711 11.7231Z" fill="white"/>
<path id="Union_2" d="M110.997 45.2112C112.657 44.3782 113.203 45.1863 114 45.2444C114.899 45.3107 114.728 45.1112 115.112 45.4544C114.65 45.8861 114.724 45.7117 113.902 45.7532C113.93 48.7117 110.62 47.4886 110.662 49.0218C111.783 49.3565 113.659 48.7119 113.961 49.7854C114.29 50.9589 113.144 51.961 112.485 52.2737C109.303 53.7789 107.272 50.8563 110.136 49.8655C109.726 49.2899 109.139 49.1976 110.455 48.3518L110.748 48.1692C110.214 47.696 109.618 47.7623 109.87 46.5999C110.008 45.9579 110.438 45.4907 110.997 45.2112ZM111.478 49.8303C110.407 49.8386 109.771 50.1094 109.613 51.0667C109.328 52.7992 112.334 52.6997 113.001 51.136C113.537 49.8799 112.508 49.8248 111.478 49.8303ZM216.105 46.052C216.52 44.8481 218.234 44.5791 219.493 45.1575C219.421 45.5422 219.385 45.9849 219.119 46.2893L219.019 45.9632C218.757 45.1967 219.274 46.4633 218.948 45.7503C218.317 44.3666 215.826 45.8495 217.165 46.677C217.361 46.8016 217.213 46.7162 217.462 46.802C217.899 46.9514 219.03 47.112 219.235 47.4993C219.611 49.702 216.723 50.535 215.358 49.5999L215.776 48.2737C216.081 48.5975 215.712 48.8219 216.122 49.262C216.393 49.5515 218.225 50.028 218.47 48.5051L218.491 48.3489C217.691 47.2724 215.439 47.9778 216.105 46.052ZM103.902 44.9954C107.478 43.9716 107.605 48.7535 104.558 49.7805C101.138 50.9318 100.429 45.9917 103.902 44.9954ZM135.522 44.9348C139.151 44.1516 138.904 49.072 135.802 49.8469C134.1 50.2702 132.924 49.1854 133.112 47.5471C133.26 46.2629 134.089 45.3414 135.282 44.9964L135.522 44.9348ZM210.304 44.9348C213.932 44.1517 213.677 49.0803 210.58 49.8469C208.878 50.2675 207.705 49.1882 207.89 47.5471C208.048 46.1772 208.983 45.2199 210.304 44.9348ZM174.932 44.9309C178.561 44.156 178.309 49.0709 175.209 49.843C173.51 50.2691 172.334 49.1872 172.519 47.5462C172.665 46.2672 173.498 45.3381 174.689 44.9944L174.932 44.9309ZM180.437 47.2659C180.878 45.3316 183.363 44.3129 184.752 45.1487L184.489 46.1673C184.403 46.3527 184.383 46.3643 184.311 46.4612C184.292 46.4254 184.282 46.3726 184.273 46.3421L184.135 45.8772C184.063 45.7056 184.237 45.7103 183.819 45.4944C181.31 44.1976 179.594 50.2948 183.792 49.1575L183.996 49.1009C183.952 50.2771 179.674 50.6257 180.437 47.2659ZM159.852 46.055C160.262 44.8706 161.999 44.5933 163.242 45.1604C163.167 45.5423 163.129 45.9878 162.866 46.2923C162.85 46.2591 162.841 46.2098 162.833 46.1848C162.825 46.1599 162.811 46.1069 162.8 46.0764C162.778 46.0082 162.729 45.0805 161.51 45.2132C160.727 45.2991 160.121 46.1929 160.912 46.68C161.327 46.9373 162.739 47.0456 162.979 47.5022C163.181 47.8901 163.173 50.5958 159.094 49.6936L159.52 48.2766C159.758 48.5257 159.501 48.0804 159.631 48.5481L159.675 48.7698C159.785 49.2179 159.52 48.8884 159.869 49.262C160.14 49.5516 161.971 50.0309 162.214 48.5051L162.238 48.3548C161.452 47.2727 159.183 47.9892 159.852 46.055ZM141.328 46.051C141.74 44.861 143.476 44.6002 144.722 45.1565L144.408 46.2005C144.4 46.1811 144.369 46.2635 144.345 46.2913C144.328 46.2581 144.32 46.2087 144.311 46.1839L144.173 45.7493C144.087 45.5613 144.112 45.5525 143.938 45.4143C143.18 44.8082 141.669 45.5336 142.084 46.386C142.405 47.0444 144.145 46.898 144.461 47.5012C144.666 47.8917 144.646 50.5929 140.575 49.6907L141.002 48.2737C141.306 48.5973 140.935 48.8212 141.348 49.261C141.63 49.5627 143.573 50.0583 143.714 48.3509C142.922 47.2688 140.661 47.9853 141.328 46.051ZM119.298 45.0227C122.989 43.9269 120.934 48.7994 121.019 49.1907C121.501 49.8881 121.357 49.0387 121.606 49.7385L120.076 49.7776L120.206 48.9641C119.78 49.216 119.099 49.7938 118.554 49.8548C117.654 49.9544 117.142 49.5729 117.253 48.6848C117.474 46.8999 119.173 47.3503 120.579 46.7112C120.751 45.9751 120.474 45.4654 119.691 45.4182C118.534 45.3456 118.838 45.9057 118.252 46.2063L118.127 46.2678C118.207 45.3661 118.473 45.2662 119.298 45.0227ZM154.219 44.9885C157.598 44.1002 155.887 48.0774 155.865 49.3284C156.463 49.641 156.253 49.265 156.419 49.7376L154.886 49.7766L155.015 48.9602C154.611 49.2121 153.903 49.7957 153.366 49.8538C152.467 49.9533 151.955 49.5748 152.065 48.6839C152.287 46.8933 153.984 47.3551 155.392 46.7102C155.567 45.9825 155.287 45.4673 154.507 45.4202C153.35 45.3501 153.659 45.9076 153.068 46.2102L152.94 46.2678C153.018 45.3462 153.344 45.2183 154.219 44.9885ZM192.899 46.262C193.052 44.5463 195.432 44.7565 195.952 45.1966C196.716 45.8443 195.979 48.1581 195.794 49.1848C196.275 49.8795 196.129 49.0354 196.381 49.7356L194.848 49.7766L194.977 48.9573C194.576 49.2119 193.859 49.7937 193.328 49.8518C192.426 49.9514 191.917 49.572 192.027 48.6809C192.249 46.8959 193.94 47.3466 195.354 46.7073C195.528 45.9797 195.249 45.4654 194.469 45.4182C193.317 45.3482 193.619 45.9057 193.03 46.2083L192.899 46.262ZM79.7528 45.013C83.4462 43.9174 81.3959 48.7896 81.4774 49.1829C81.9589 49.883 81.8126 49.0256 82.0643 49.7337L80.5311 49.7727L80.661 48.9563C80.2515 49.2109 79.5512 49.7915 79.0116 49.8499C78.1094 49.9495 77.6002 49.5737 77.7108 48.68C77.9322 46.8921 79.6283 47.3483 81.037 46.7063C81.2141 45.9812 80.9317 45.4633 80.1512 45.4163C78.9944 45.3437 79.3014 45.9038 78.7128 46.2044L78.5819 46.2581C78.6594 45.3559 78.9283 45.2565 79.7528 45.013ZM90.9774 42.2512C90.6204 44.3684 89.8685 47.2254 89.7772 49.3509C90.3743 49.5636 90.2359 49.2843 90.5126 49.763L88.7694 49.7766L88.9159 48.8909C88.1798 49.306 87.5931 50.1089 86.3866 49.7825C84.9447 49.3923 84.5548 46.6158 86.9432 45.387C88.2877 44.6954 88.1801 44.8198 89.5995 45.138L89.871 43.0598C89.287 42.5728 89.4803 43.2424 89.1981 42.6116L89.204 42.6145L90.9774 42.2512ZM205.151 42.2493C204.803 44.4106 204.053 47.1699 203.95 49.3479C204.556 49.5583 204.413 49.2795 204.689 49.761L202.946 49.7747L203.09 48.8919C202.362 49.3125 201.773 50.106 200.566 49.7825C199.13 49.3978 198.725 46.6223 201.122 45.388C202.489 44.685 202.354 44.8317 203.779 45.1389L204.051 43.0608C203.464 42.5738 203.66 43.2484 203.378 42.6126H203.375L205.151 42.2493ZM130.382 42.2493C130.03 44.4189 129.286 47.1644 129.178 49.3479C129.781 49.5554 129.636 49.2795 129.916 49.761L128.173 49.7718L128.316 48.8889C127.589 49.3096 126.996 50.1069 125.793 49.7805C124.86 49.5287 124.489 48.5621 124.732 47.3997C124.981 46.2016 125.455 45.8444 126.349 45.385C127.694 44.6959 127.592 44.8151 129.006 45.1389L129.277 43.0608C128.693 42.5766 128.886 43.2458 128.604 42.6126L130.382 42.2493ZM166.391 46.053C166.793 44.8851 168.526 44.5413 169.782 45.1585C169.746 45.3439 169.729 45.5826 169.66 45.804L169.405 46.2903L169.234 45.7512C168.714 44.6082 166.668 45.4138 167.144 46.388C167.341 46.7889 167.922 46.844 168.415 46.9768C169.026 47.1428 169.167 47.1571 169.524 47.5003C169.903 49.7723 167.606 50.1262 165.636 49.6917L166.062 48.2747C166.314 48.5404 166.024 47.9929 166.215 48.7678C166.325 49.2186 166.057 48.8868 166.408 49.263C166.69 49.5606 168.522 50.0193 168.757 48.5051L168.777 48.3528C167.988 47.2707 165.725 47.9899 166.391 46.053ZM99.4686 45.0471C99.2502 45.4673 99.2723 45.194 98.8905 45.4983C98.5224 45.7919 97.8026 47.0284 97.5204 47.4739C96.7603 48.6699 96.4185 49.6712 95.745 49.8216L95.6083 49.8401C95.3731 49.3585 95.0653 47.8369 94.9159 47.2307C94.1548 44.1698 94.227 45.8771 93.953 45.0081H96.3446C96.1703 45.365 96.2972 45.1547 95.9266 45.3372C95.9183 45.3427 95.605 45.4369 95.5331 45.4729C95.5386 45.8936 95.9959 48.3374 96.3114 48.7415C96.8594 47.9914 97.7837 46.4633 98.1434 45.5667C97.8668 45.1464 97.7064 45.4534 97.5321 45.0051L99.4686 45.0471ZM189.034 44.9134C189.012 46.2279 188.365 47.845 188.379 49.3284C188.55 49.4278 188.749 49.4723 188.758 49.4778C189.101 49.6878 188.893 49.3561 189.054 49.76L186.514 49.7786C186.779 49.2231 186.677 49.5855 187.393 49.3587L187.988 45.7083C187.695 45.5649 187.714 45.5602 187.518 45.5657L187.23 45.5696C187.449 45.0661 187.728 45.2371 189.034 44.9134ZM104.403 49.4925C106.111 48.9303 106.351 44.5083 104.029 45.2776C102.994 45.6208 102.649 46.4488 102.607 47.6692C102.566 48.8508 103.075 49.9297 104.403 49.4925ZM175.275 49.4925C176.98 48.9334 177.229 44.5132 174.902 45.2766C173.867 45.617 173.521 46.4533 173.479 47.6682C173.438 48.8553 173.947 49.9265 175.275 49.4925ZM210.646 49.4895C212.346 48.936 212.6 44.5113 210.27 45.2776L210.273 45.2747C209.238 45.6179 208.895 46.4403 208.85 47.6663C208.809 48.848 209.315 49.9239 210.646 49.4895ZM135.764 49.5208C137.598 49.0583 137.844 44.5059 135.495 45.2776H135.498C134.46 45.618 134.117 46.4543 134.075 47.6692C134.034 48.8149 134.485 49.8446 135.764 49.5208ZM120.532 47.096C120.026 47.1735 119.154 47.3258 118.75 47.5471C117.566 48.1948 118.238 50.195 119.904 48.8362C120.405 48.4294 120.441 47.8762 120.532 47.096ZM195.307 47.0979C194.801 47.1754 193.931 47.3277 193.527 47.5491C192.343 48.1913 193.018 50.1946 194.679 48.8362C195.054 48.529 195.17 48.1437 195.242 47.6399L195.307 47.0979ZM80.9921 47.0999C80.4933 47.1748 79.6031 47.3356 79.2137 47.5481C78.032 48.1874 78.6954 50.193 80.3641 48.8343C80.8561 48.4335 80.9092 47.8731 80.9921 47.0999ZM155.347 47.0979C154.84 47.1756 153.971 47.331 153.568 47.5491C153.173 47.7651 152.669 48.6612 153.189 49.1233C153.624 49.5107 154.462 49.0466 154.72 48.8362C155.218 48.4294 155.252 47.8782 155.347 47.0979ZM89.2674 47.0198C89.5938 45.3817 88.4593 45.2099 87.7176 45.4036C85.6309 45.9516 85.689 49.7736 87.9003 49.1565C88.8136 48.9019 89.0516 48.1102 89.2674 47.0198ZM128.765 45.9827C126.744 44.1873 125.132 46.6917 125.696 48.3411C126.023 49.2956 127.157 49.4863 127.932 48.7835C128.474 48.2908 128.832 46.9873 128.763 45.9827H128.765ZM203.538 45.9856C201.523 44.187 199.907 46.6918 200.469 48.344C200.781 49.2572 201.958 49.4615 202.705 48.7835C203.216 48.319 203.56 47.1544 203.546 46.176L203.538 45.9856ZM112.773 45.5266C112.059 44.6272 110.391 45.4742 110.891 47.5803C112.676 48.3468 113.495 46.4372 112.773 45.5266ZM80.9921 47.0999C80.9932 47.0997 80.9948 47.1001 80.996 47.0999L80.993 47.0969C80.9929 47.0979 80.9922 47.0989 80.9921 47.0999Z" fill="white"/>
<g id="Group 30">
<path id="Vector" fill-rule="evenodd" clip-rule="evenodd" d="M3.59201 30.9758L17.4673 31.0805C17.4804 32.2638 17.4615 33.4456 17.4702 34.626C17.4789 35.7497 17.3495 35.5447 16.0732 36.8123C15.31 37.5697 5.80886 46.9299 5.47015 47.4983C5.6693 47.8239 5.71291 47.8762 5.96876 48.1321C6.87149 47.1465 7.8847 46.2655 8.83249 45.296L16.018 38.1468C16.4018 37.763 17.1693 37.0769 17.4455 36.7004C17.4847 36.9839 17.5051 39.3185 17.4469 39.5074C17.3423 39.8476 7.70444 49.0028 7.35702 49.6206C7.4893 49.8183 7.83818 50.1963 8.03733 50.314C8.19433 50.2268 8.08531 50.3038 8.2205 50.1745L13.7764 44.5357C14.3259 44.0472 14.6995 43.5981 15.1952 43.1009C15.6081 42.6866 17.7173 40.3491 18.072 40.2837C18.4572 40.2125 20.4749 40.2575 20.9532 40.2866C19.0823 42.1982 17.2056 44.0836 15.3071 45.9908L11.029 50.269C10.6263 50.6716 9.88495 51.2851 9.57386 51.6674C9.78029 51.8825 9.91548 52.0061 10.1611 52.166C10.7935 51.8549 15.2853 47.1974 16.1895 46.2132L18.7582 43.5908C19.5693 42.8625 20.5026 41.8159 21.2701 40.9815C21.5288 40.7009 21.8181 40.291 22.2978 40.2721C23.4026 40.2299 24.6034 40.2822 25.7227 40.2764L25.7648 61.0407C27.5063 60.8589 33.6844 57.0489 35.4565 55.8278C37.464 54.4454 39.6372 52.9524 41.3918 51.304L42.1623 50.6135C43.4749 49.5101 45.6278 47.1988 46.2761 45.7291C46.9463 44.2101 47.1105 42.3624 47.096 40.5512C47.08 38.5713 47.0568 36.6016 47.0379 34.6129L33.9228 34.61C33.7818 33.6404 33.8952 31.6794 33.8952 30.6052C33.8952 28.4872 33.7455 29.0541 35.0916 27.6702C35.4463 27.3053 35.785 27.0335 36.1339 26.6643C36.5278 26.2485 36.7604 26.0043 37.1645 25.6467C38.4321 24.5245 39.5645 23.2772 40.8699 22.1855C41.0909 22.0009 41.1679 21.8904 41.3845 21.6782L44.0593 19.2346C44.9329 18.3754 45.8531 17.6704 46.7166 16.7706C47.1542 16.3141 47.1193 15.7835 47.0539 15.141L43.8194 18.1894C41.8555 19.9396 40.0632 21.8468 38.0978 23.5839C37.1587 24.414 34.6337 27.0756 33.8952 27.5059L33.9926 24.3195L47.0975 11.3818L47.0757 10.0561L32.85 24.0651L30.1157 24.0593L45.3225 8.84953L44.5274 8.521L28.6504 24.0302C28.3771 24.1189 24.6848 24.0651 24.0975 24.0549L23.9725 5.20663C20.5971 5.1921 16.8073 5.6878 13.5337 6.33032C10.3574 6.95394 7.47185 7.88284 4.7157 9.07049C3.45246 9.61562 3.60073 9.31761 3.56439 10.7844C3.49461 13.6307 3.59637 16.4813 3.59637 19.3407C3.59637 23.2191 3.60364 27.0975 3.59637 30.9758M24.8374 35.1435C25.2779 36.0041 26.5513 36.7891 28.0529 36.5783C30.1724 36.2803 30.4529 34.8339 30.8527 34.7089C30.8818 35.1159 30.7902 35.818 30.5285 36.0579C29.0516 37.4098 23.7253 37.8066 23.1221 33.7276C22.6511 30.5368 25.1354 28.4363 28.0442 28.8113C29.1897 28.9596 29.4484 29.278 29.9078 29.4364C30.3657 29.5949 30.4471 29.0585 30.5561 29.8769C30.6143 30.3173 30.7829 31.0151 30.6346 31.2448C30.4064 31.1721 30.2189 30.7433 30.0503 30.5281C29.4077 29.7097 28.7202 29.2053 27.5005 29.134C27.7302 29.8434 27.9468 30.0993 27.9831 31.0384C28.0108 31.7652 27.8988 32.4499 27.6037 33.0531C27.1051 34.0722 26.1777 34.9066 24.8374 35.1406V35.1435Z" fill="#DACBA2"/>
<path id="Vector_2" fill-rule="evenodd" clip-rule="evenodd" d="M2.3519 8.75866C2.03936 11.6282 2.2923 15.2231 2.2923 18.1683V37.4759C2.2923 42.1829 1.81114 45.5031 5.03538 49.1053C5.83781 50.0022 6.55155 50.7683 7.40777 51.5562L8.69863 52.6799C9.15508 53.0505 9.56647 53.3936 10.0346 53.7599C12.8416 55.9492 15.5338 57.7255 18.726 59.547C19.591 60.0398 24.4579 62.607 25.3548 62.5517C25.9217 62.5168 28.2258 61.508 28.7913 61.2318C31.2683 60.0209 32.6638 59.1574 34.9359 57.7255C37.381 56.1847 38.4306 55.2819 40.5616 53.696C41.5051 52.9939 42.3104 52.1958 43.1739 51.4791C43.4254 51.2713 43.5344 51.0924 43.7553 50.8933C44.3921 50.3191 44.9953 49.6431 45.5535 49.0326C48.8941 45.3897 48.3184 42.2774 48.3286 37.4759V18.1683C48.3271 15.8075 48.5248 10.7764 48.2632 8.7325C47.9157 8.62783 47.4971 8.36326 47.1235 8.18737C35.1743 2.54422 16.8101 2.55731 4.73883 7.63643C4.02217 7.93734 2.98861 8.36763 2.349 8.75866M3.59043 30.9751C3.5977 27.0967 3.59043 23.2183 3.59043 19.3399C3.59043 16.4806 3.48867 13.6299 3.55845 10.7836C3.59479 9.31687 3.44651 9.61488 4.70975 9.06975C7.46737 7.8821 10.3529 6.9532 13.5277 6.32958C16.8014 5.68706 20.5911 5.19136 23.9665 5.20589L24.0915 24.0542C24.6774 24.0644 28.3711 24.1181 28.6444 24.0295C28.8407 23.9655 33.6029 19.1815 34.3545 18.4576C35.4869 17.3644 36.5946 16.2131 37.7837 15.1577L40.0427 12.9554C40.9585 12.0338 43.9661 9.31106 44.5214 8.52171C44.7031 8.56532 44.7904 8.59585 44.9633 8.66563L45.3166 8.84879C45.3253 8.83425 45.3486 8.8706 45.3631 8.88368C45.0913 9.35031 43.0925 11.1427 42.4877 11.746L31.9733 22.1499C31.5765 22.5409 30.2958 23.6719 30.1083 24.0585C30.745 24.0585 31.3832 24.0585 32.0199 24.0585C33.0796 24.0585 32.9197 24.1836 33.4939 23.5948C34.1349 22.9378 34.76 22.3534 35.4113 21.7094C37.3083 19.8342 39.2039 17.8921 41.1547 16.043L44.0504 13.236C44.3557 12.8944 44.6988 12.6371 45.0404 12.3231L46.0245 11.4058C46.3065 11.1485 46.6947 10.6252 47.0668 10.5525C47.0639 11.5381 47.2238 11.5308 46.7179 12.1021C45.837 13.0935 44.7351 13.8727 43.7859 14.8001L39.9831 18.5302C39.6604 18.8529 39.3333 19.1451 38.9989 19.449C38.6646 19.7528 38.3898 20.0886 38.0613 20.4113C37.4261 21.0349 36.753 21.5873 36.1425 22.224C35.4738 22.9218 34.9301 23.4422 34.2585 24.0687C34.0463 24.2679 33.9125 24.278 33.882 24.6749C33.8137 25.6023 33.8835 26.5778 33.8864 27.5081C34.6263 27.0778 37.1499 24.4161 38.0889 23.5861C40.0543 21.849 41.8452 19.9417 43.8106 18.1915L47.045 15.1432C47.1104 15.7857 47.1453 16.3163 46.7077 16.7727C45.8443 17.6726 44.9241 18.3776 44.0504 19.2367L41.3757 21.6803C41.1591 21.8911 41.082 22.0031 40.8611 22.1877C39.5542 23.2794 38.4233 24.5266 37.1557 25.6489C36.7516 26.0065 36.519 26.2507 36.125 26.6664C35.7761 27.0357 35.4374 27.3075 35.0827 27.6724C33.7366 29.0563 33.8864 28.4893 33.8864 30.6073C33.8864 31.683 33.773 33.644 33.914 34.6122L47.029 34.6151C47.0479 36.6037 47.0712 38.5734 47.0872 40.5533C47.1017 42.3646 46.9374 44.2122 46.2673 45.7313C45.619 47.201 43.4675 49.5123 42.1534 50.6156L41.383 51.3061C39.6284 52.9531 37.4551 54.4461 35.4476 55.83C33.6756 57.051 27.496 60.8611 25.756 61.0428L25.7138 40.2786C24.596 40.2859 23.3938 40.2321 22.289 40.2742C21.8093 40.2931 21.5185 40.7031 21.2612 40.9836C20.4937 41.8166 19.5604 42.8647 18.7493 43.593L16.1807 46.2154C15.2765 47.1995 10.7846 51.8571 10.1523 52.1682C9.90663 52.0083 9.77289 51.8862 9.56501 51.6696C9.8761 51.2872 10.6175 50.6738 11.0201 50.2711L15.2983 45.993C17.1982 44.0872 19.0735 42.2003 20.9443 40.2888C20.4661 40.2582 18.4484 40.2146 18.0632 40.2859C17.7085 40.3513 15.5992 42.6873 15.1864 43.1031C14.6907 43.6002 14.3185 44.0494 13.7676 44.5379L8.21165 50.1766C8.07645 50.3075 8.18548 50.229 8.02849 50.3162C7.82933 50.1984 7.479 49.819 7.34817 49.6228C7.69559 49.005 17.3349 39.8498 17.4381 39.5096C17.4962 39.3221 17.4759 36.986 17.4366 36.7026C17.1604 37.0791 16.3915 37.7652 16.0091 38.149L8.82364 45.2981C7.87585 46.2692 6.86264 47.1486 5.95991 48.1342C5.70407 47.8798 5.66046 47.8261 5.4613 47.5004C5.80001 46.932 15.3027 37.5719 16.0644 36.8145C17.3422 35.5469 17.4701 35.7519 17.4614 34.6282C17.4526 33.4478 17.473 32.266 17.4584 31.0827L3.58316 30.978L3.59043 30.9751Z" fill="#FFFAD5"/>
<path id="Vector_3" fill-rule="evenodd" clip-rule="evenodd" d="M0.0968206 5.32855C-0.0994249 8.8319 0.0633846 12.3832 0.0633846 15.904V37.5521C0.0633846 40.8781 -0.288405 44.4846 0.938493 47.3571C1.97496 49.7832 4.16128 51.878 5.69054 53.3535C7.15584 54.7679 10.2318 57.0356 11.7247 58.1462C14.8821 60.4939 18.3913 62.3807 21.867 64.24C22.3874 64.5191 25.1944 65.7881 25.68 65.8187C26.5449 65.8754 32.111 62.9346 32.9759 62.4185C36.9823 60.0273 40.7066 57.6868 44.1968 54.6952C45.3234 53.73 46.985 52.1949 47.972 51.0872C51.9725 46.5982 51.3532 43.6429 51.3503 37.6247V15.9767C51.3503 12.4573 51.5364 8.80282 51.3198 5.30674C40.1847 -0.241916 24.4109 -1.24349 11.6593 1.39201C8.82756 1.97784 5.38382 2.98087 2.73523 4.09293C1.96333 4.4171 0.692825 4.91861 0.0968206 5.32855ZM2.35582 8.76067C2.99544 8.36963 4.029 7.9408 4.74566 7.63843C16.8155 2.55931 35.1812 2.54622 47.1303 8.18937C47.5054 8.36672 47.9226 8.63129 48.27 8.7345C48.5317 10.7784 48.3325 15.8095 48.3354 18.1703V37.4779C48.3252 42.2794 48.9009 45.3917 45.5589 49.0346C44.9992 49.6437 44.396 50.3211 43.7607 50.8953C43.5398 51.0945 43.4307 51.2733 43.1793 51.4811C42.3158 52.1978 41.5104 52.9944 40.567 53.698C38.4359 55.2839 37.3864 56.1867 34.9413 57.7275C32.6692 59.1594 31.2737 60.0229 28.7966 61.2338C28.2312 61.51 25.9271 62.5188 25.3602 62.5537C24.4632 62.609 19.5964 60.0418 18.7314 59.549C15.5392 57.7275 12.847 55.9512 10.0399 53.7619C9.57184 53.3971 9.16045 53.054 8.704 52.6819L7.41314 51.5582C6.55548 50.7703 5.84318 50.0042 5.04075 49.1073C1.81651 45.5051 2.29913 42.1849 2.29768 37.4779V18.1703C2.29768 15.2237 2.04328 11.6288 2.35728 8.76067H2.35582Z" fill="#DACBA2"/>
<path id="Vector_4" fill-rule="evenodd" clip-rule="evenodd" d="M24.5514 34.7262C25.5268 34.2247 26.1475 33.7726 26.6011 32.7158C26.8075 32.2347 26.9354 31.6314 26.9543 31.0455C26.9819 30.1704 26.7915 29.8666 26.7275 29.1529C26.085 29.3491 25.6445 29.4233 25.2288 29.8085C24.7971 30.2082 24.6037 30.3754 24.3377 31.0397C23.8493 32.255 24.1124 33.6767 24.5514 34.7277" fill="#DACBA2"/>
<path id="Vector_5" fill-rule="evenodd" clip-rule="evenodd" d="M26.3165 33.1345L26.6 32.7158C27.0405 31.6663 27.3021 30.2446 26.8137 29.0279C26.5477 28.3635 26.3543 28.1978 25.9226 27.7966C25.5069 27.4114 25.0664 27.3387 24.4239 27.141L23.652 27.125C22.4338 27.1962 21.7447 27.7021 21.1022 28.5191C20.9336 28.7342 20.7461 29.1616 20.5179 29.2343C20.3696 29.0031 20.5382 28.3068 20.5964 27.8664C20.7054 27.0465 20.7868 27.5829 21.2447 27.4259C21.7041 27.2675 21.9628 26.9491 23.1083 26.8008C26.0171 26.4258 28.5014 28.5263 28.0304 31.7171C27.4286 35.7961 22.1024 35.3993 20.624 34.0474C20.3609 33.8075 20.2707 33.1054 20.2998 32.6984C20.6996 32.8219 20.9801 34.2698 23.0996 34.5678C24.6012 34.7786 25.8746 33.9936 26.3151 33.133" fill="#FEF9D4"/>
<path id="Vector_6" fill-rule="evenodd" clip-rule="evenodd" d="M24.8361 35.1433L24.5527 34.7247C24.1122 33.6751 23.8506 32.2534 24.339 31.0367C24.605 30.3724 24.7983 30.2067 25.2301 29.8055C25.6458 29.4202 26.0863 29.3476 26.7288 29.1499L27.5007 29.1339C28.7189 29.2051 29.4079 29.711 30.0505 30.5279C30.2191 30.7431 30.4066 31.1705 30.6348 31.2446C30.7831 31.0135 30.6145 30.3172 30.5563 29.8767C30.4473 29.0568 30.3659 29.5932 29.908 29.4362C29.4486 29.2778 29.1899 28.9594 28.0444 28.8112C25.1356 28.4361 22.6513 30.5367 23.1223 33.7275C23.7241 37.8065 29.0503 37.4096 30.5287 36.0577C30.7918 35.8178 30.882 35.1157 30.8529 34.7087C30.4531 34.8323 30.1726 36.2801 28.0531 36.5781C26.5515 36.7889 25.2781 36.0039 24.8376 35.1433" fill="#353731"/>
</g>
</g>
</svg>
