<svg preserveAspectRatio="xMidYMid meet" width="100%" height="100%" overflow="visible" style="display: block;" viewBox="0 0 249 72.2987" fill="none" xmlns="http://www.w3.org/2000/svg">
<g id="Group 31">
<path id="Union" d="M117.171 9.94923C120.755 9.63003 123.495 10.1925 126.386 12.0195C130.083 14.3513 132.965 18.5524 133.414 24.0576C134.63 38.914 118.752 46.6933 108.687 37.6738C99.5539 29.4894 103.423 11.7167 116.539 10.0147L117.171 9.94923ZM81.2152 11.7129C83.9512 10.2142 87.5871 9.38396 91.1439 10.0801C93.1351 10.4692 93.9684 11.0253 95.6283 11.7275C96.6557 12.1622 97.2236 11.9526 97.7465 11.2656C98.4243 10.372 97.9507 9.65134 99.142 9.9004L99.8382 20.2334C98.8049 20.2182 99.309 20.483 98.6341 18.6621C96.7585 13.5976 92.819 10.439 86.9945 11.5303C81.0452 12.646 78.5583 18.088 78.306 24.7334C78.0386 31.8225 80.319 37.1755 85.8578 38.9326C88.7397 39.8476 92.4304 39.6598 94.8988 38.2432C96.1056 37.5501 97.1422 36.5644 97.8627 35.7041C99.3361 33.9428 99.5348 33.2641 100.321 33.4268L100.486 33.4668C99.8047 35.4519 98.0263 37.0392 97.2025 37.9512C96.7711 38.4282 96.8711 38.3497 96.4213 38.6992C93.0865 41.283 88.9309 42.0579 84.4349 41.1338C70.5422 38.2732 69.5995 18.0757 81.2152 11.7129ZM164.097 10.4717C165.866 10.3106 168.195 10.4346 170.025 10.4346C174.588 10.4346 182.127 9.92748 185.164 12.7334C187.648 15.0286 188.545 18.1051 187.156 21.294C186.247 23.3794 184.553 24.6438 182.559 25.419L180.601 26.0723L186.413 34.582C187.997 36.8164 189.497 38.8801 192.044 39.6553C194.424 40.3817 194.281 39.6223 194.287 40.8291L186.7 40.874C185.888 40.874 185.526 39.9049 184.875 39.0264L177.938 29.4473C175.451 25.9027 176.573 26.7353 172.718 26.6563L172.709 35.2139C172.709 39.4486 173.217 40.1084 177.09 40.1084V40.8809C174.491 40.8839 166.067 40.9988 164.1 40.8438V40.1475C165.507 40.0168 166.869 40.1237 167.678 39.291C168.402 38.5432 168.459 36.9769 168.459 35.6758V15.7949C168.459 11.092 167.265 11.4748 164.1 11.1738L164.097 11.1709V10.4717ZM218.205 10.4326C218.771 10.4334 219.439 12.3475 219.834 13.2412C221.594 17.2357 228.693 31.8939 229.478 34.1807C229.717 33.9688 229.466 34.3205 229.79 33.8076L230.982 31.1621C232.702 27.341 239.597 12.7262 240.4 10.4541L249 10.4356V11.208C245.644 11.205 244.702 11.6941 244.702 15.6367V35.6738C244.702 39.5528 245.474 40.1094 249 40.1094L248.982 40.875C245.395 40.875 239.424 40.9934 236.117 40.8535V40.1299C239.923 39.9353 240.427 39.6651 240.427 35.0625C240.427 30.9097 240.607 18.7316 240.391 15.4697C239.816 16.1416 231.487 34.9002 230.052 37.8926C229.769 38.4793 229.587 38.9112 229.337 39.4736C228.751 40.805 228.815 40.8844 227.952 40.8662L216.266 15.3965C216.047 18.3362 216.214 31.1107 216.214 35.2178C216.214 39.3247 216.463 40.1184 220.509 40.1123V40.8779H209.94V40.1123C213.411 40.1123 214.25 39.5252 214.25 35.6768V15.7949C214.25 12.3144 213.42 11.2384 209.943 11.2109L209.94 11.2022V10.4326H218.205ZM137.07 10.5215C137.79 10.3513 161.077 10.3452 161.84 10.5215L162.114 16.0996C162.168 17.352 162.307 17.3796 161.918 17.4951C161.183 17.7135 161.244 16.9049 161.216 16.7803C160.851 15.0537 160.477 13.6679 158.632 12.8076C156.954 12.0264 153.601 12.2842 151.503 12.2842C151.415 17.6072 151.497 23.0067 151.497 28.3389C151.497 31.0139 151.428 33.7893 151.522 36.4522C151.643 39.9176 152.519 39.9756 155.781 40.1367V40.8848H142.912V40.1152C146.111 40.1152 147.121 39.6077 147.2 36.291C147.26 33.6616 147.208 30.9744 147.208 28.3389C147.208 23.0067 147.275 17.6347 147.203 12.3086C145.488 12.2022 141.399 12.1198 140.085 12.7764C139.262 13.1898 138.611 13.9592 138.225 14.7373C137.122 16.9594 138.237 17.5405 136.708 17.4707L137.07 10.5215ZM208.035 10.4385V11.21C204.639 11.21 203.688 11.6574 203.688 15.6397V35.5244C203.688 39.4701 204.335 40.1113 208.035 40.1113V40.8779H195.051V40.1113C199.003 40.1083 199.383 39.2447 199.383 35.2168V16.0986C199.38 11.9248 198.897 11.21 195.048 11.21H195.054V10.4385H208.035ZM125.519 14.7188C123.54 12.0741 120.348 10.8759 116.998 11.4746C110.377 12.6602 108.435 19.905 108.903 27.4199C109.325 34.1898 112.581 41.1571 120.165 39.832C130.854 37.9655 129.456 19.978 125.519 14.7188ZM179.827 12.876C177.495 11.3986 175.336 12.1065 172.706 12.5352V25.2793C175.485 25.2915 177.726 25.2182 179.827 23.9141C183.693 21.5154 183.787 15.3871 179.827 12.876Z" fill="white"/>
<path id="Union_2" d="M121.923 49.6624C123.747 48.7474 124.346 49.6347 125.222 49.6985C126.21 49.7715 126.021 49.5532 126.444 49.93C125.936 50.4039 126.018 50.2125 125.116 50.2581C125.146 53.5076 121.511 52.1644 121.556 53.8479C122.787 54.2157 124.848 53.5083 125.179 54.6878C125.541 55.9766 124.282 57.0767 123.559 57.4202C120.063 59.0738 117.832 55.8641 120.978 54.7757C120.528 54.143 119.883 54.0421 121.329 53.1126L121.65 52.9124C121.063 52.3926 120.409 52.4651 120.686 51.1888C120.838 50.4836 121.309 49.9695 121.923 49.6624ZM122.452 54.7356C121.276 54.7448 120.577 55.0432 120.404 56.095C120.091 57.9979 123.391 57.8885 124.124 56.1712C124.714 54.791 123.583 54.7296 122.452 54.7356ZM237.379 50.5872C237.835 49.2648 239.718 48.9694 241.101 49.6048C241.022 50.0273 240.982 50.5135 240.69 50.8479L240.58 50.4895C240.292 49.6478 240.86 51.0394 240.501 50.2552C239.808 48.7359 237.073 50.3648 238.544 51.2737C238.76 51.4104 238.596 51.3162 238.869 51.4104C239.35 51.5746 240.593 51.7515 240.818 52.177C241.231 54.5966 238.058 55.5118 236.559 54.4847L237.018 53.0276C237.352 53.3833 236.948 53.6302 237.398 54.1136C237.696 54.4317 239.708 54.9548 239.977 53.2815L240 53.1097C239.122 51.9274 236.647 52.7025 237.379 50.5872ZM114.13 49.4261C118.058 48.3013 118.198 53.5541 114.851 54.6819C111.094 55.9463 110.316 50.5208 114.13 49.4261ZM148.864 49.3587C152.849 48.4984 152.579 53.9037 149.171 54.7552C147.302 55.2203 146.009 54.0285 146.216 52.2288C146.379 50.8179 147.289 49.805 148.6 49.4261L148.864 49.3587ZM231.006 49.3587C234.991 48.4984 234.712 53.9129 231.311 54.7552C229.441 55.2172 228.152 54.0314 228.356 52.2288C228.529 50.7241 229.556 49.6719 231.006 49.3587ZM192.154 49.3548C196.139 48.5038 195.862 53.9031 192.457 54.7513C190.591 55.2193 189.299 54.0304 189.502 52.2278C189.662 50.8226 190.578 49.8026 191.887 49.4251L192.154 49.3548ZM198.2 51.9202C198.683 49.7954 201.413 48.6764 202.939 49.594L202.651 50.7132C202.556 50.9168 202.534 50.929 202.455 51.0354C202.434 50.996 202.422 50.938 202.413 50.9046L202.261 50.3938C202.182 50.2054 202.373 50.211 201.914 49.9739C199.158 48.5504 197.275 55.2473 201.885 53.9983L202.11 53.9358C202.06 55.2275 197.361 55.61 198.2 51.9202ZM175.588 50.5882C176.038 49.2871 177.948 48.9826 179.313 49.6058C179.231 50.0252 179.187 50.5145 178.899 50.8489L178.826 50.6126C178.802 50.5396 178.75 49.5175 177.409 49.6634C176.549 49.7576 175.884 50.7397 176.753 51.2747C177.209 51.5574 178.759 51.6765 179.024 52.178C179.246 52.6041 179.236 55.5762 174.755 54.5852L175.224 53.0286C175.485 53.3022 175.202 52.8137 175.345 53.3274L175.394 53.5706C175.515 54.0625 175.224 53.7013 175.607 54.1116C175.905 54.4297 177.916 54.9554 178.183 53.2806L178.209 53.1145C177.346 51.926 174.853 52.7127 175.588 50.5882ZM155.241 50.5862C155.693 49.279 157.6 48.9928 158.968 49.6038L158.624 50.7503C158.615 50.7292 158.582 50.8204 158.555 50.8509C158.537 50.8144 158.527 50.7591 158.518 50.7317L158.366 50.2552C158.272 50.0485 158.299 50.0389 158.108 49.887C157.275 49.2212 155.615 50.0181 156.071 50.9544C156.424 51.6775 158.335 51.5166 158.682 52.179C158.907 52.6076 158.886 55.5742 154.414 54.5833L154.882 53.0276C155.216 53.3832 154.809 53.6293 155.262 54.1126C155.572 54.4439 157.706 54.988 157.862 53.1126C156.992 51.924 154.508 52.7109 155.241 50.5862ZM131.042 49.4554C135.097 48.252 132.839 53.6058 132.933 54.0345C133.462 54.8001 133.304 53.867 133.577 54.636L131.896 54.679L132.039 53.7845C131.571 54.0611 130.823 54.6971 130.224 54.764C129.236 54.8733 128.674 54.4535 128.795 53.4778C129.038 51.517 130.905 52.0121 132.45 51.3099C132.638 50.5015 132.334 49.9427 131.474 49.8909C130.203 49.8111 130.537 50.426 129.893 50.7561L129.756 50.8235C129.844 49.8328 130.136 49.7229 131.042 49.4554ZM169.401 49.4173C173.112 48.4417 171.234 52.8096 171.209 54.1839C171.866 54.5274 171.635 54.1142 171.818 54.6341L170.133 54.677L170.276 53.7796C169.832 54.0563 169.054 54.6982 168.464 54.762C167.476 54.8714 166.914 54.4547 167.035 53.4759C167.279 51.509 169.142 52.0162 170.69 51.3079C170.881 50.5087 170.574 49.9437 169.717 49.8919C168.446 49.8149 168.785 50.4267 168.137 50.7591L167.996 50.8216C168.082 49.8095 168.44 49.6696 169.401 49.4173ZM211.889 50.8167C212.056 48.9323 214.671 49.1634 215.242 49.6468C216.081 50.3585 215.272 52.8999 215.069 54.0276C215.597 54.7903 215.437 53.8633 215.713 54.6321L214.029 54.678L214.172 53.7776C213.731 54.0573 212.943 54.6962 212.36 54.76C211.369 54.8693 210.809 54.4527 210.931 53.4739C211.174 51.5133 213.032 52.009 214.585 51.3069C214.777 50.5074 214.47 49.9416 213.613 49.8899C212.347 49.813 212.68 50.4257 212.033 50.7581L211.889 50.8167ZM87.6038 49.4456C91.6614 48.242 89.4081 53.5962 89.4983 54.0267C90.0273 54.7958 89.8662 53.8539 90.1429 54.6321L88.4583 54.6741L88.6009 53.7776C88.1509 54.0574 87.382 54.6962 86.7893 54.76C85.7984 54.8694 85.2391 54.4557 85.3606 53.4739C85.6038 51.5101 87.4676 52.0112 89.0149 51.3059C89.2093 50.5097 88.8991 49.9418 88.0423 49.8899C86.771 49.8101 87.1084 50.425 86.4612 50.7552L86.3186 50.8138C86.4038 49.8228 86.6981 49.7131 87.6038 49.4456ZM99.9339 46.4114C99.5417 48.737 98.7149 51.8745 98.6145 54.2093C99.2712 54.4433 99.1191 54.1365 99.4231 54.6624L97.5081 54.677L97.6692 53.7044C96.8607 54.1603 96.2161 55.0424 94.8909 54.6839C93.3071 54.2552 92.878 51.2056 95.5013 49.8558C96.9787 49.0958 96.8607 49.2327 98.4202 49.5823L98.7181 47.2991C98.0767 46.7642 98.2889 47.5 97.9788 46.8069L97.9856 46.8099L99.9339 46.4114ZM225.348 46.4095C224.965 48.7837 224.141 51.8148 224.029 54.2073C224.694 54.438 224.536 54.1316 224.84 54.6604L222.925 54.6751L223.082 53.7054C222.283 54.1675 221.635 55.0395 220.31 54.6839C218.732 54.2609 218.289 51.2124 220.921 49.8567C222.423 49.0846 222.275 49.2459 223.84 49.5833L224.138 47.3001C223.494 46.7651 223.709 47.5069 223.399 46.8079H223.396L225.348 46.4095ZM143.216 46.4095C142.83 48.7928 142.012 51.8088 141.894 54.2073C142.557 54.4353 142.398 54.1315 142.705 54.6604L140.79 54.6722L140.949 53.7024C140.149 54.1645 139.498 55.0397 138.176 54.6809C137.152 54.4043 136.744 53.3435 137.012 52.0667C137.286 50.7506 137.806 50.3584 138.787 49.8538C140.265 49.097 140.152 49.2277 141.705 49.5833L142.003 47.3001C141.362 46.7684 141.575 47.5036 141.265 46.8079L143.216 46.4095ZM182.772 50.5872C183.213 49.3044 185.115 48.9271 186.495 49.6048C186.456 49.8085 186.438 50.0706 186.362 50.3138L186.082 50.8489L185.894 50.2552C185.322 49.0003 183.077 49.8845 183.599 50.9544C183.815 51.3951 184.452 51.457 184.993 51.6028C185.665 51.7852 185.821 51.8001 186.213 52.177C186.63 54.6728 184.106 55.0615 181.942 54.5843L182.409 53.0286C182.686 53.3204 182.368 52.7184 182.577 53.5696C182.699 54.0645 182.404 53.7002 182.79 54.1136C183.1 54.4405 185.112 54.9436 185.369 53.2806L185.392 53.1136C184.526 51.9249 182.039 52.715 182.772 50.5872ZM109.261 49.4817C109.021 49.9438 109.045 49.6434 108.625 49.9778C108.221 50.3004 107.43 51.6583 107.12 52.1477C106.285 53.4616 105.91 54.5619 105.17 54.7268L105.02 54.7474C104.761 54.2183 104.424 52.5471 104.26 51.8811C103.424 48.5191 103.503 50.3938 103.202 49.4397H105.828C105.637 49.8315 105.777 49.6005 105.369 49.8011C105.358 49.8079 105.017 49.9111 104.938 49.9505C104.944 50.413 105.446 53.0961 105.792 53.5403C106.394 52.7165 107.41 51.0389 107.805 50.054C107.501 49.592 107.325 49.9289 107.133 49.4368L109.261 49.4817ZM207.644 49.3343C207.62 50.7783 206.908 52.5544 206.923 54.1839C207.11 54.2926 207.328 54.3414 207.339 54.3479C207.716 54.5789 207.488 54.2143 207.664 54.6575L204.874 54.679C205.166 54.0682 205.054 54.4663 205.841 54.2171L206.494 50.2073C206.173 50.05 206.193 50.0451 205.979 50.0511L205.661 50.055C205.902 49.5019 206.209 49.6899 207.644 49.3343ZM114.681 54.3655C116.556 53.7482 116.821 48.8912 114.271 49.7356C113.134 50.1126 112.754 51.0219 112.708 52.3626C112.663 53.6606 113.222 54.8458 114.681 54.3655ZM192.531 54.3645C194.403 53.7502 194.676 48.8964 192.12 49.7347C190.983 50.1086 190.603 51.027 190.558 52.3616C190.512 53.6657 191.071 54.8418 192.531 54.3645ZM231.383 54.3626C233.25 53.7546 233.53 48.8937 230.97 49.7356L230.973 49.7327C229.836 50.1097 229.459 51.013 229.41 52.3597C229.365 53.6575 229.921 54.8396 231.383 54.3626ZM149.128 54.3958C151.144 53.8879 151.414 48.8876 148.833 49.7356H148.836C147.696 50.1096 147.319 51.028 147.274 52.3626C147.228 53.6211 147.724 54.7515 149.128 54.3958ZM132.398 51.7327C131.841 51.8178 130.884 51.9856 130.44 52.2288C129.139 52.9404 129.878 55.137 131.707 53.6448C132.258 53.1979 132.297 52.59 132.398 51.7327ZM214.533 51.7347C213.977 51.8198 213.023 51.9876 212.579 52.2308C211.278 52.936 212.02 55.1365 213.844 53.6438C214.256 53.3064 214.383 52.8836 214.462 52.3304L214.533 51.7347ZM88.9651 51.7376C88.4172 51.8199 87.4387 51.9972 87.011 52.2308C85.7135 52.9332 86.4428 55.1361 88.2757 53.6438C88.8162 53.2035 88.8741 52.5873 88.9651 51.7376ZM170.64 51.7337C170.083 51.819 169.129 51.9902 168.686 52.2298C168.251 52.4673 167.698 53.4517 168.27 53.9593C168.747 54.3845 169.668 53.8739 169.95 53.6429C170.498 53.196 170.537 52.591 170.64 51.7337ZM98.055 51.6497C98.4137 49.85 97.1675 49.6615 96.3528 49.8743C94.0607 50.4763 94.125 54.6743 96.554 53.9964C97.5568 53.7166 97.8179 52.8472 98.055 51.6497ZM141.441 50.51C139.222 48.5377 137.449 51.2891 138.07 53.1009C138.428 54.1493 139.675 54.3589 140.526 53.5872C141.122 53.0461 141.514 51.6136 141.438 50.51H141.441ZM223.575 50.514C221.362 48.538 219.586 51.2889 220.203 53.1038C220.547 54.1069 221.84 54.332 222.66 53.5872C223.222 53.077 223.599 51.7968 223.583 50.722L223.575 50.514ZM123.875 50.0091C123.091 49.0211 121.258 49.9515 121.808 52.2649C123.769 53.1069 124.668 51.0093 123.875 50.0091ZM88.9651 51.7376C88.9664 51.7374 88.9678 51.7378 88.969 51.7376L88.9661 51.7347L88.9651 51.7376Z" fill="white"/>
<g id="Group 30">
<path id="Vector" fill-rule="evenodd" clip-rule="evenodd" d="M3.94568 34.0253L19.1869 34.1403C19.2013 35.4401 19.1805 36.7383 19.1901 38.0348C19.1997 39.2691 19.0576 39.044 17.6556 40.4364C16.8173 41.2683 6.38076 51.5499 6.00871 52.1743C6.22747 52.532 6.27537 52.5894 6.5564 52.8705C7.548 51.7879 8.66095 50.8202 9.70205 49.7552L17.5949 41.9022C18.0165 41.4807 18.8596 40.727 19.1629 40.3134C19.2061 40.6248 19.2284 43.1892 19.1645 43.3968C19.0496 43.7705 8.46295 53.8269 8.08132 54.5056C8.22663 54.7227 8.60986 55.1379 8.82861 55.2672C9.00107 55.1714 8.88131 55.2561 9.02981 55.1139L15.1327 48.92C15.7363 48.3835 16.1466 47.8901 16.6911 47.344C17.1446 46.889 19.4615 44.3213 19.8512 44.2495C20.2743 44.1712 22.4906 44.2207 23.016 44.2527C20.9609 46.3524 18.8995 48.4235 16.8141 50.5184L12.1148 55.2177C11.6725 55.66 10.8581 56.3339 10.5164 56.7538C10.7431 56.9901 10.8916 57.1259 11.1615 57.3015C11.8561 56.9598 16.7901 51.8437 17.7833 50.7627L20.6048 47.8821C21.4958 47.0822 22.521 45.9325 23.3641 45.0159C23.6483 44.7078 23.966 44.2575 24.493 44.2367C25.7065 44.1904 27.0255 44.2479 28.255 44.2415L28.3013 67.0498C30.2142 66.8502 37.0005 62.6651 38.947 61.3238C41.1521 59.8053 43.5393 58.1654 45.4666 56.3546L46.3129 55.5962C47.7548 54.3842 50.1196 51.8453 50.8318 50.231C51.5679 48.5624 51.7483 46.5329 51.7324 44.5433C51.7148 42.3685 51.6893 40.2049 51.6685 38.0205L37.2624 38.0173C37.1075 36.9522 37.232 34.7982 37.232 33.6182C37.232 31.2917 37.0676 31.9144 38.5462 30.3943C38.9358 29.9935 39.3079 29.6949 39.6911 29.2893C40.1238 28.8326 40.3793 28.5644 40.8232 28.1716C42.2156 26.9388 43.4595 25.5688 44.8934 24.3696C45.1361 24.1668 45.2207 24.0455 45.4586 23.8124L48.3967 21.1282C49.3564 20.1845 50.3671 19.41 51.3156 18.4216C51.7962 17.9203 51.7579 17.3374 51.6861 16.6317L48.1332 19.9801C45.976 21.9026 44.0072 23.9976 41.8483 25.9057C40.8168 26.8175 38.0432 29.7412 37.232 30.2138L37.339 26.7137L51.734 12.5024L51.71 11.0461L36.084 26.4343L33.0804 26.4279L49.7843 9.72082L48.9109 9.35995L31.4709 26.3959C31.1707 26.4933 27.1149 26.4343 26.4698 26.4231L26.3325 5.7193C22.6248 5.70333 18.462 6.24783 14.866 6.9536C11.3771 7.63862 8.20747 8.65896 5.17998 9.96353C3.79238 10.5623 3.95526 10.235 3.91534 11.8461C3.83869 14.9726 3.95047 18.1039 3.95047 21.2447C3.95047 25.5049 3.95845 29.7651 3.95047 34.0253M27.2825 38.6033C27.7664 39.5486 29.1651 40.4108 30.8146 40.1793C33.1427 39.852 33.4509 38.2632 33.89 38.1259C33.9219 38.573 33.8213 39.3442 33.5339 39.6077C31.9116 41.0927 26.061 41.5286 25.3983 37.048C24.881 33.5431 27.6099 31.2358 30.805 31.6477C32.0633 31.8106 32.3475 32.1603 32.8521 32.3343C33.3551 32.5084 33.4445 31.9192 33.5643 32.8182C33.6281 33.302 33.8134 34.0684 33.6505 34.3207C33.3998 34.2409 33.1938 33.7698 33.0086 33.5335C32.3028 32.6345 31.5475 32.0805 30.2078 32.0022C30.4601 32.7814 30.698 33.0625 30.738 34.094C30.7683 34.8924 30.6454 35.6445 30.3212 36.3071C29.7735 37.4265 28.7548 38.343 27.2825 38.6001V38.6033Z" fill="#DACBA2"/>
<path id="Vector_2" fill-rule="evenodd" clip-rule="evenodd" d="M2.58341 9.62171C2.2401 12.7737 2.51794 16.7226 2.51794 19.9576V41.166C2.51794 46.3364 1.98941 49.9834 5.53106 53.9402C6.41248 54.9254 7.19649 55.7669 8.13699 56.6324L9.55493 57.8667C10.0563 58.2738 10.5082 58.6507 11.0224 59.0531C14.1057 61.4578 17.063 63.4091 20.5695 65.4098C21.5196 65.9511 26.8656 68.7711 27.8508 68.7104C28.4735 68.6721 31.0044 67.5639 31.6256 67.2605C34.3465 65.9304 35.8794 64.9819 38.3751 63.4091C41.0609 61.7165 42.2138 60.7249 44.5546 58.9828C45.591 58.2116 46.4756 57.3349 47.424 56.5477C47.7003 56.3194 47.82 56.123 48.0628 55.9042C48.7621 55.2735 49.4248 54.531 50.038 53.8604C53.7074 49.8588 53.075 46.4401 53.0862 41.166V19.9576C53.0846 17.3645 53.3018 11.838 53.0144 9.59297C52.6327 9.478 52.1729 9.18739 51.7625 8.99418C38.637 2.79549 18.4649 2.80987 5.20531 8.389C4.4181 8.71953 3.2828 9.19218 2.58022 9.62171M3.94386 34.0252C3.95185 29.765 3.94386 25.5048 3.94386 21.2446C3.94386 18.1038 3.83209 14.9725 3.90873 11.846C3.94865 10.2349 3.78578 10.5622 5.17338 9.96342C8.20246 8.65885 11.3721 7.63851 14.8594 6.9535C18.4554 6.24772 22.6181 5.70322 26.3259 5.71919L26.4632 26.423C27.1067 26.4342 31.1641 26.4932 31.4643 26.3958C31.6798 26.3256 36.9109 21.0706 37.7364 20.2754C38.9803 19.0746 40.197 17.81 41.5032 16.6507L43.9846 14.2316C44.9906 13.2192 48.2943 10.2285 48.9043 9.36143C49.1039 9.40934 49.1997 9.44287 49.3897 9.51952L49.7777 9.72071C49.7873 9.70474 49.8128 9.74466 49.8288 9.75903C49.5302 10.2716 47.3346 12.2404 46.6704 12.9031L35.1209 24.3312C34.685 24.7607 33.2782 26.003 33.0722 26.4278C33.7716 26.4278 34.4726 26.4278 35.172 26.4278C36.336 26.4278 36.1604 26.5651 36.7911 25.9184C37.4953 25.1967 38.1819 24.5547 38.8973 23.8474C40.9811 21.7875 43.0633 19.6542 45.2061 17.6231L48.3869 14.5398C48.7222 14.1645 49.0991 13.8819 49.4743 13.537L50.5553 12.5294C50.8651 12.2468 51.2914 11.672 51.7002 11.5921C51.697 12.6747 51.8727 12.6668 51.317 13.2943C50.3493 14.3833 49.139 15.2392 48.0963 16.2579L43.9191 20.3552C43.5646 20.7097 43.2054 21.0307 42.8381 21.3644C42.4709 21.6981 42.1691 22.067 41.8082 22.4215C41.1104 23.1065 40.3711 23.7132 39.7004 24.4126C38.9659 25.1791 38.3687 25.7507 37.631 26.4389C37.3979 26.6577 37.251 26.6689 37.2175 27.1048C37.1424 28.1235 37.2191 29.195 37.2223 30.2169C38.035 29.7443 40.807 26.8206 41.8385 25.9088C43.9974 24.0007 45.9646 21.9057 48.1234 19.9832L51.6763 16.6347C51.7481 17.3405 51.7864 17.9233 51.3058 18.4247C50.3573 19.4131 49.3466 20.1876 48.3869 21.1313L45.4488 23.8154C45.2109 24.047 45.1263 24.1699 44.8836 24.3727C43.4481 25.5719 42.2058 26.9419 40.8134 28.1746C40.3695 28.5674 40.114 28.8357 39.6813 29.2924C39.2981 29.698 38.926 29.9966 38.5364 30.3973C37.0578 31.9175 37.2223 31.2947 37.2223 33.6212C37.2223 34.8028 37.0977 36.9569 37.2526 38.0204L51.6587 38.0235C51.6795 40.2079 51.705 42.3716 51.7226 44.5464C51.7385 46.536 51.5581 48.5655 50.822 50.2341C50.1098 51.8484 47.7466 54.3873 46.3031 55.5993L45.4568 56.3577C43.5295 58.1669 41.1423 59.8068 38.9372 61.3269C36.9907 62.6682 30.2028 66.8533 28.2915 67.0529L28.2452 44.2446C27.0173 44.2526 25.6967 44.1935 24.4832 44.2398C23.9562 44.2605 23.6369 44.7108 23.3543 45.019C22.5112 45.934 21.486 47.0852 20.595 47.8852L17.7735 50.7658C16.7803 51.8468 11.8463 56.9629 11.1517 57.3046C10.8818 57.129 10.7349 56.9948 10.5066 56.7569C10.8483 56.337 11.6627 55.6631 12.105 55.2208L16.8043 50.5215C18.8913 48.4281 20.9511 46.3555 23.0062 44.2558C22.4808 44.2222 20.2645 44.1743 19.8414 44.2526C19.4517 44.3244 17.1348 46.8904 16.6813 47.3471C16.1368 47.8932 15.7281 48.3866 15.1229 48.9231L9.02001 55.117C8.87151 55.2607 8.99127 55.1745 8.81882 55.2703C8.60006 55.141 8.21523 54.7242 8.07152 54.5087C8.45315 53.83 19.0414 43.7735 19.1547 43.3999C19.2186 43.1939 19.1963 40.6279 19.1531 40.3165C18.8498 40.7301 18.0051 41.4838 17.5851 41.9053L9.69225 49.7582C8.65116 50.8249 7.5382 51.7909 6.5466 52.8736C6.26557 52.5941 6.21767 52.535 5.99891 52.1774C6.37096 51.553 16.8091 41.2714 17.6458 40.4395C19.0494 39.0471 19.1899 39.2722 19.1803 38.0379C19.1707 36.7413 19.1931 35.4432 19.1771 34.1434L3.93588 34.0284L3.94386 34.0252Z" fill="#FFFAD5"/>
<path id="Vector_3" fill-rule="evenodd" clip-rule="evenodd" d="M0.106352 5.8528C-0.109213 9.70103 0.0696244 13.602 0.0696244 17.4693V41.2485C0.0696244 44.9019 -0.316797 48.8635 1.03088 52.0188C2.16938 54.6838 4.57093 56.9847 6.25074 58.6055C7.86029 60.1591 11.2391 62.6501 12.879 63.87C16.3472 66.4488 20.2018 68.5214 24.0197 70.5637C24.5913 70.8703 27.6747 72.2643 28.208 72.2978C29.1581 72.3601 35.2721 69.1298 36.2222 68.563C40.6229 65.9363 44.7139 63.3654 48.5477 60.0793C49.7852 59.019 51.6103 57.3328 52.6945 56.1161C57.0889 51.1852 56.4086 47.939 56.4054 41.3284V17.5492C56.4054 13.6834 56.6098 9.66909 56.3719 5.82885C44.1406 -0.266043 26.814 -1.36622 12.8071 1.52873C9.69658 2.17223 5.91382 3.27401 3.0045 4.49554C2.15661 4.85162 0.76103 5.40251 0.106352 5.8528ZM2.58774 9.62279C3.29032 9.19325 4.42563 8.72221 5.21284 8.39008C18.4709 2.81094 38.6445 2.79657 51.77 8.99525C52.182 9.19006 52.6403 9.48067 53.0219 9.59404C53.3093 11.8391 53.0905 17.3655 53.0937 19.9587V41.1671C53.0826 46.4412 53.7149 49.8599 50.0439 53.8614C49.4291 54.5305 48.7665 55.2746 48.0687 55.9053C47.826 56.1241 47.7062 56.3205 47.43 56.5488C46.4815 57.336 45.5969 58.2111 44.5606 58.9839C42.2197 60.726 41.0668 61.7176 38.3811 63.4102C35.8853 64.983 34.3524 65.9315 31.6315 67.2616C31.0103 67.565 28.4794 68.6731 27.8567 68.7115C26.8715 68.7721 21.5255 65.9522 20.5754 65.4109C17.0689 63.4102 14.1117 61.4589 11.0283 59.0542C10.5141 58.6534 10.0622 58.2765 9.56086 57.8677L8.14292 56.6334C7.20082 55.768 6.4184 54.9265 5.53698 53.9413C1.99533 49.9845 2.52546 46.3374 2.52387 41.1671V19.9587C2.52387 16.722 2.24443 12.7732 2.58934 9.62279H2.58774Z" fill="#DACBA2"/>
<path id="Vector_4" fill-rule="evenodd" clip-rule="evenodd" d="M26.9683 38.1434C28.0397 37.5925 28.7215 37.0959 29.2197 35.9351C29.4465 35.4065 29.587 34.7439 29.6077 34.1004C29.6381 33.1391 29.4289 32.8054 29.3586 32.0214C28.6529 32.2369 28.169 32.3184 27.7124 32.7415C27.2381 33.1806 27.0258 33.3643 26.7335 34.094C26.197 35.4289 26.486 36.9905 26.9683 38.145" fill="#DACBA2"/>
<path id="Vector_5" fill-rule="evenodd" clip-rule="evenodd" d="M28.9072 36.3949L29.2186 35.935C29.7024 34.7822 29.9899 33.2205 29.4533 31.884C29.1611 31.1543 28.9488 30.9723 28.4745 30.5316C28.0178 30.1084 27.534 30.0286 26.8282 29.8114L25.9804 29.7938C24.6423 29.8721 23.8854 30.4278 23.1796 31.3252C22.9944 31.5615 22.7884 32.0309 22.5377 32.1108C22.3748 31.8569 22.5601 31.092 22.6239 30.6082C22.7437 29.7076 22.8331 30.2968 23.3361 30.1244C23.8407 29.9503 24.1249 29.6006 25.3832 29.4378C28.5783 29.0258 31.3072 31.3331 30.7898 34.8381C30.1288 39.3186 24.2782 38.8827 22.6543 37.3977C22.3653 37.1342 22.2663 36.363 22.2982 35.9159C22.7373 36.0516 23.0455 37.642 25.3736 37.9693C27.023 38.2009 28.4218 37.3386 28.9057 36.3933" fill="#FEF9D4"/>
<path id="Vector_6" fill-rule="evenodd" clip-rule="evenodd" d="M27.2807 38.603L26.9693 38.1432C26.4855 36.9903 26.1981 35.4286 26.7346 34.0921C27.0268 33.3624 27.2392 33.1804 27.7134 32.7397C28.1701 32.3165 28.6539 32.2367 29.3597 32.0195L30.2076 32.002C31.5457 32.0802 32.3025 32.6359 33.0083 33.5333C33.1935 33.7696 33.3995 34.239 33.6502 34.3205C33.8131 34.0666 33.6279 33.3017 33.564 32.8179C33.4442 31.9173 33.3548 32.5065 32.8518 32.3341C32.3473 32.16 32.063 31.8104 30.8048 31.6475C27.6096 31.2355 24.8807 33.5429 25.3981 37.0478C26.0592 41.5283 31.9097 41.0924 33.5337 39.6074C33.8227 39.3439 33.9217 38.5727 33.8897 38.1256C33.4506 38.2613 33.1424 39.8517 30.8143 40.1791C29.1649 40.4106 27.7661 39.5483 27.2823 38.603" fill="#353731"/>
</g>
</g>
</svg>
