<svg preserveAspectRatio="xMidYMid meet" width="100%" height="100%" overflow="visible" style="display: block;" viewBox="0 0 17 17" fill="none" xmlns="http://www.w3.org/2000/svg">
<g id="SVG" clip-path="url(#clip0_0_39)">
<path id="Vector" d="M13.5079 3.49208C12.405 2.38794 10.9682 1.67897 9.42092 1.47531C7.87361 1.27165 6.30235 1.5847 4.95125 2.36583" stroke="#A8854A" stroke-width="1.41667" stroke-linecap="round" stroke-linejoin="round"/>
<path id="Vector_2" d="M2.83398 4.25H2.84107" stroke="#A8854A" stroke-width="1.41667" stroke-linecap="round" stroke-linejoin="round"/>
<path id="Vector_3" d="M1.62208 6.81417C1.35653 7.89584 1.34979 9.02488 1.60241 10.1096C1.85504 11.1944 2.35991 12.2043 3.07603 13.0574C3.79216 13.9104 4.69936 14.5826 5.72397 15.0192C6.74858 15.4559 7.86174 15.6448 8.97305 15.5706C10.0844 15.4964 11.1625 15.1612 12.12 14.5922C13.0774 14.0231 13.8872 13.2363 14.4836 12.2957C15.0799 11.355 15.4461 10.2869 15.5522 9.17819C15.6584 8.06947 15.5016 6.95134 15.0946 5.91458" stroke="#A8854A" stroke-width="1.41667" stroke-linecap="round" stroke-linejoin="round"/>
<path id="Vector_4" d="M11.5041 5.49669C11.0965 5.08668 10.6095 4.76416 10.0729 4.54885C9.53634 4.33354 8.96147 4.22998 8.38349 4.2445C7.8055 4.25903 7.23656 4.39133 6.71147 4.63331C6.18638 4.87529 5.71618 5.22186 5.32965 5.65183C4.94311 6.08179 4.64838 6.5861 4.46346 7.1339C4.27855 7.6817 4.20735 8.26146 4.25423 8.83773C4.3011 9.41399 4.46506 9.97463 4.73607 10.4853C5.00709 10.9961 5.37946 11.4461 5.83039 11.8079" stroke="#A8854A" stroke-width="1.41667" stroke-linecap="round" stroke-linejoin="round"/>
<path id="Vector_5" d="M8.5 12.75H8.50708" stroke="#A8854A" stroke-width="1.41667" stroke-linecap="round" stroke-linejoin="round"/>
<path id="Vector_6" d="M12.7424 8.25928C12.781 8.93317 12.6584 9.60654 12.385 10.2237C12.1115 10.8408 11.695 11.3839 11.1699 11.808" stroke="#A8854A" stroke-width="1.41667" stroke-linecap="round" stroke-linejoin="round"/>
<path id="Vector_7" d="M8.50065 9.91659C9.28305 9.91659 9.91732 9.28232 9.91732 8.49992C9.91732 7.71752 9.28305 7.08325 8.50065 7.08325C7.71825 7.08325 7.08398 7.71752 7.08398 8.49992C7.08398 9.28232 7.71825 9.91659 8.50065 9.91659Z" stroke="#A8854A" stroke-width="1.41667" stroke-linecap="round" stroke-linejoin="round"/>
<path id="Vector_8" d="M9.49805 7.50135L13.5072 3.49219" stroke="#A8854A" stroke-width="1.41667" stroke-linecap="round" stroke-linejoin="round"/>
</g>
<defs>
<clipPath id="clip0_0_39">
<rect width="17" height="17" fill="white"/>
</clipPath>
</defs>
</svg>
