<svg preserveAspectRatio="xMidYMid meet" width="100%" height="100%" overflow="visible" style="display: block;" viewBox="0 0 34 34" fill="none" xmlns="http://www.w3.org/2000/svg">
<g id="SVG">
<path id="Vector" d="M14.166 25.5002V15.5835" stroke="#2C4E82" stroke-width="2.83333" stroke-linecap="round" stroke-linejoin="round"/>
<path id="Vector_2" d="M15.7519 3.12375C16.1404 2.93315 16.5673 2.83405 17 2.83405C17.4327 2.83405 17.8596 2.93315 18.2481 3.12375L29.3547 8.57225C29.4986 8.64273 29.6143 8.75988 29.683 8.90458C29.7517 9.04928 29.7693 9.21299 29.733 9.36899C29.6966 9.52499 29.6085 9.66408 29.4829 9.76354C29.3574 9.86301 29.2018 9.91699 29.0417 9.91667H4.95833C4.79828 9.91667 4.64294 9.86246 4.51764 9.76288C4.39233 9.6633 4.30444 9.52422 4.2683 9.3683C4.23215 9.21238 4.24988 9.04881 4.31859 8.90426C4.3873 8.7597 4.50294 8.64267 4.64667 8.57225L15.7519 3.12375Z" stroke="#2C4E82" stroke-width="2.83333" stroke-linecap="round" stroke-linejoin="round"/>
<path id="Vector_3" d="M19.834 25.5002V15.5835" stroke="#2C4E82" stroke-width="2.83333" stroke-linecap="round" stroke-linejoin="round"/>
<path id="Vector_4" d="M25.5 25.5V15.5833" stroke="#2C4E82" stroke-width="2.83333" stroke-linecap="round" stroke-linejoin="round"/>
<path id="Vector_5" d="M4.25 31.1667H29.75" stroke="#2C4E82" stroke-width="2.83333" stroke-linecap="round" stroke-linejoin="round"/>
<path id="Vector_6" d="M8.5 25.5V15.5833" stroke="#2C4E82" stroke-width="2.83333" stroke-linecap="round" stroke-linejoin="round"/>
</g>
</svg>
