<svg preserveAspectRatio="xMidYMid meet" width="100%" height="100%" overflow="visible" style="display: block;" viewBox="0 0 17 17" fill="none" xmlns="http://www.w3.org/2000/svg">
<g id="SVG">
<path id="Vector" d="M8.5 2.125V14.875" stroke="#A8854A" stroke-width="1.41667" stroke-linecap="round" stroke-linejoin="round"/>
<path id="Vector_2" d="M13.459 5.66659L15.584 11.3333C14.9709 11.793 14.2253 12.0416 13.459 12.0416C12.6927 12.0416 11.947 11.793 11.334 11.3333L13.459 5.66659ZM13.459 5.66659V4.95825" stroke="#A8854A" stroke-width="1.41667" stroke-linecap="round" stroke-linejoin="round"/>
<path id="Vector_3" d="M2.125 4.95833H2.83333C4.80986 4.95833 6.756 4.4718 8.5 3.54167C10.244 4.4718 12.1901 4.95833 14.1667 4.95833H14.875" stroke="#A8854A" stroke-width="1.41667" stroke-linecap="round" stroke-linejoin="round"/>
<path id="Vector_4" d="M3.54102 5.66659L5.66602 11.3333C5.05297 11.793 4.30733 12.0416 3.54102 12.0416C2.7747 12.0416 2.02906 11.793 1.41602 11.3333L3.54102 5.66659ZM3.54102 5.66659V4.95825" stroke="#A8854A" stroke-width="1.41667" stroke-linecap="round" stroke-linejoin="round"/>
<path id="Vector_5" d="M4.95898 14.875H12.0423" stroke="#A8854A" stroke-width="1.41667" stroke-linecap="round" stroke-linejoin="round"/>
</g>
</svg>
