<svg preserveAspectRatio="xMidYMid meet" width="100%" height="100%" overflow="visible" style="display: block;" viewBox="0 0 34 34" fill="none" xmlns="http://www.w3.org/2000/svg">
<g id="SVG">
<path id="Vector" d="M14.8743 31.1668H8.49935C7.7479 31.1668 7.02723 30.8683 6.49588 30.337C5.96453 29.8056 5.66602 29.085 5.66602 28.3335V5.66684C5.66602 4.91539 5.96453 4.19472 6.49588 3.66337C7.02723 3.13202 7.7479 2.83351 8.49935 2.83351H19.8327C20.2816 2.83241 20.7263 2.92022 21.1411 3.09188C21.5559 3.26355 21.9326 3.51566 22.2495 3.83367L27.3325 8.91667C27.6505 9.23354 27.9026 9.61025 28.0743 10.0251C28.246 10.4399 28.3338 10.8846 28.3327 11.3335V19.8335" stroke="#2C4E82" stroke-width="2.83333" stroke-linecap="round" stroke-linejoin="round"/>
<path id="Vector_2" d="M19.834 2.8335V9.91683C19.834 10.2926 19.9832 10.6529 20.2489 10.9186C20.5146 11.1842 20.8749 11.3335 21.2507 11.3335H28.334" stroke="#2C4E82" stroke-width="2.83333" stroke-linecap="round" stroke-linejoin="round"/>
<path id="Vector_3" d="M19.834 28.3333L22.6673 31.1667L28.334 25.5" stroke="#2C4E82" stroke-width="2.83333" stroke-linecap="round" stroke-linejoin="round"/>
</g>
</svg>
