<svg preserveAspectRatio="xMidYMid meet" width="100%" height="100%" overflow="visible" style="display: block;" viewBox="0 0 24 24" fill="none" xmlns="http://www.w3.org/2000/svg">
<g id="SVG">
<path id="Vector" d="M10 18V11" stroke="#2C4E82" stroke-width="2" stroke-linecap="round" stroke-linejoin="round"/>
<path id="Vector_2" d="M11.119 2.205C11.3932 2.07046 11.6946 2.00051 12 2.00051C12.3054 2.00051 12.6068 2.07046 12.881 2.205L20.721 6.051C20.8225 6.10075 20.9042 6.18344 20.9527 6.28558C21.0012 6.38773 21.0136 6.50329 20.988 6.6134C20.9623 6.72352 20.9001 6.8217 20.8115 6.89191C20.7229 6.96213 20.6131 7.00023 20.5 7H3.5C3.38702 7 3.27737 6.96174 3.18892 6.89145C3.10047 6.82115 3.03843 6.72298 3.01291 6.61292C2.9874 6.50286 2.99991 6.3874 3.04841 6.28536C3.09691 6.18332 3.17854 6.10071 3.28 6.051L11.119 2.205Z" stroke="#2C4E82" stroke-width="2" stroke-linecap="round" stroke-linejoin="round"/>
<path id="Vector_3" d="M14 18V11" stroke="#2C4E82" stroke-width="2" stroke-linecap="round" stroke-linejoin="round"/>
<path id="Vector_4" d="M18 18V11" stroke="#2C4E82" stroke-width="2" stroke-linecap="round" stroke-linejoin="round"/>
<path id="Vector_5" d="M3 22H21" stroke="#2C4E82" stroke-width="2" stroke-linecap="round" stroke-linejoin="round"/>
<path id="Vector_6" d="M6 18V11" stroke="#2C4E82" stroke-width="2" stroke-linecap="round" stroke-linejoin="round"/>
</g>
</svg>
