<svg preserveAspectRatio="xMidYMid meet" width="100%" height="100%" overflow="visible" style="display: block;" viewBox="0 0 17 17" fill="none" xmlns="http://www.w3.org/2000/svg">
<g id="SVG">
<path id="Vector" d="M1.46029 8.25339C1.40126 8.41242 1.40126 8.58736 1.46029 8.74639C2.03524 10.1405 3.0112 11.3325 4.26442 12.1713C5.51764 13.01 6.9917 13.4578 8.49971 13.4578C10.0077 13.4578 11.4818 13.01 12.735 12.1713C13.9882 11.3325 14.9642 10.1405 15.5391 8.74639C15.5982 8.58736 15.5982 8.41242 15.5391 8.25339C14.9642 6.85929 13.9882 5.66729 12.735 4.82853C11.4818 3.98976 10.0077 3.54199 8.49971 3.54199C6.9917 3.54199 5.51764 3.98976 4.26442 4.82853C3.0112 5.66729 2.03524 6.85929 1.46029 8.25339Z" stroke="#A8854A" stroke-width="1.41667" stroke-linecap="round" stroke-linejoin="round"/>
<path id="Vector_2" d="M8.5 10.625C9.6736 10.625 10.625 9.6736 10.625 8.5C10.625 7.32639 9.6736 6.375 8.5 6.375C7.32639 6.375 6.375 7.32639 6.375 8.5C6.375 9.6736 7.32639 10.625 8.5 10.625Z" stroke="#A8854A" stroke-width="1.41667" stroke-linecap="round" stroke-linejoin="round"/>
</g>
</svg>
