<svg preserveAspectRatio="xMidYMid meet" width="100%" height="100%" overflow="visible" style="display: block;" viewBox="0 0 17 17" fill="none" xmlns="http://www.w3.org/2000/svg">
<g id="SVG">
<path id="Vector" d="M15.3925 12.7501L9.72579 2.83341C9.60223 2.61539 9.42305 2.43404 9.20653 2.30788C8.99001 2.18171 8.74389 2.11523 8.49329 2.11523C8.24269 2.11523 7.99658 2.18171 7.78006 2.30788C7.56353 2.43404 7.38435 2.61539 7.26079 2.83341L1.59413 12.7501C1.46924 12.9664 1.40375 13.2118 1.4043 13.4616C1.40485 13.7114 1.47143 13.9565 1.59728 14.1723C1.72313 14.388 1.90377 14.5667 2.12091 14.6901C2.33805 14.8135 2.58396 14.8773 2.83371 14.8751H14.167C14.4156 14.8748 14.6597 14.8092 14.8749 14.6847C15.09 14.5603 15.2687 14.3814 15.3928 14.1661C15.517 13.9508 15.5823 13.7066 15.5823 13.458C15.5822 13.2095 15.5167 12.9653 15.3925 12.7501Z" stroke="#A8854A" stroke-width="1.41667" stroke-linecap="round" stroke-linejoin="round"/>
<path id="Vector_2" d="M8.5 6.375V9.20833" stroke="#A8854A" stroke-width="1.41667" stroke-linecap="round" stroke-linejoin="round"/>
<path id="Vector_3" d="M8.5 12.0417H8.50708" stroke="#A8854A" stroke-width="1.41667" stroke-linecap="round" stroke-linejoin="round"/>
</g>
</svg>
