<svg preserveAspectRatio="xMidYMid meet" width="100%" height="100%" overflow="visible" style="display: block;" viewBox="0 0 34 34" fill="none" xmlns="http://www.w3.org/2000/svg">
<g id="SVG">
<path id="Vector" d="M17 4.25V29.75" stroke="#2C4E82" stroke-width="2.83333" stroke-linecap="round" stroke-linejoin="round"/>
<path id="Vector_2" d="M26.916 11.3332L31.166 22.6665C29.9399 23.5861 28.4486 24.0832 26.916 24.0832C25.3834 24.0832 23.8921 23.5861 22.666 22.6665L26.916 11.3332ZM26.916 11.3332V9.9165" stroke="#2C4E82" stroke-width="2.83333" stroke-linecap="round" stroke-linejoin="round"/>
<path id="Vector_3" d="M4.25 9.91667H5.66667C9.61973 9.91667 13.512 8.9436 17 7.08333C20.488 8.9436 24.3803 9.91667 28.3333 9.91667H29.75" stroke="#2C4E82" stroke-width="2.83333" stroke-linecap="round" stroke-linejoin="round"/>
<path id="Vector_4" d="M7.08398 11.3332L11.334 22.6665C10.1079 23.5861 8.61661 24.0832 7.08398 24.0832C5.55136 24.0832 4.06008 23.5861 2.83398 22.6665L7.08398 11.3332ZM7.08398 11.3332V9.9165" stroke="#2C4E82" stroke-width="2.83333" stroke-linecap="round" stroke-linejoin="round"/>
<path id="Vector_5" d="M9.91602 29.75H24.0827" stroke="#2C4E82" stroke-width="2.83333" stroke-linecap="round" stroke-linejoin="round"/>
</g>
</svg>
