<svg preserveAspectRatio="xMidYMid meet" width="100%" height="100%" overflow="visible" style="display: block;" viewBox="0 0 34 34" fill="none" xmlns="http://www.w3.org/2000/svg">
<g id="SVG">
<path id="Vector" d="M28.3327 18.4165C28.3327 25.4998 23.3743 29.0415 17.481 31.0957C17.1724 31.2002 16.8372 31.1952 16.5318 31.0815C10.6243 29.0415 5.66602 25.4998 5.66602 18.4165V8.49982C5.66602 8.1241 5.81527 7.76377 6.08095 7.49809C6.34662 7.23241 6.70696 7.08316 7.08268 7.08316C9.91602 7.08316 13.4577 5.38316 15.9227 3.22982C16.2228 2.9734 16.6046 2.83252 16.9993 2.83252C17.3941 2.83252 17.7759 2.9734 18.076 3.22982C20.5552 5.39732 24.0827 7.08316 26.916 7.08316C27.2917 7.08316 27.6521 7.23241 27.9178 7.49809C28.1834 7.76377 28.3327 8.1241 28.3327 8.49982V18.4165Z" stroke="#2C4E82" stroke-width="2.83333" stroke-linecap="round" stroke-linejoin="round"/>
<path id="Vector_2" d="M12.75 17L15.5833 19.8333L21.25 14.1667" stroke="#2C4E82" stroke-width="2.83333" stroke-linecap="round" stroke-linejoin="round"/>
</g>
</svg>
