<svg preserveAspectRatio="xMidYMid meet" width="100%" height="100%" overflow="visible" style="display: block;" viewBox="0 0 34 34" fill="none" xmlns="http://www.w3.org/2000/svg">
<g id="SVG">
<path id="Vector" d="M17.0007 31.1668C24.8247 31.1668 31.1673 24.8242 31.1673 17.0002C31.1673 9.17613 24.8247 2.8335 17.0007 2.8335C9.17662 2.8335 2.83398 9.17613 2.83398 17.0002C2.83398 24.8242 9.17662 31.1668 17.0007 31.1668Z" stroke="#2C4E82" stroke-width="2.83333" stroke-linecap="round" stroke-linejoin="round"/>
<path id="Vector_2" d="M17 25.5C21.6944 25.5 25.5 21.6944 25.5 17C25.5 12.3056 21.6944 8.5 17 8.5C12.3056 8.5 8.5 12.3056 8.5 17C8.5 21.6944 12.3056 25.5 17 25.5Z" stroke="#2C4E82" stroke-width="2.83333" stroke-linecap="round" stroke-linejoin="round"/>
<path id="Vector_3" d="M16.9993 19.8332C18.5642 19.8332 19.8327 18.5646 19.8327 16.9998C19.8327 15.435 18.5642 14.1665 16.9993 14.1665C15.4345 14.1665 14.166 15.435 14.166 16.9998C14.166 18.5646 15.4345 19.8332 16.9993 19.8332Z" stroke="#2C4E82" stroke-width="2.83333" stroke-linecap="round" stroke-linejoin="round"/>
</g>
</svg>
